<?xml version="1.0" encoding="UTF-8"?>
<!DOCTYPE svg PUBLIC "-//W3C//DTD SVG 1.1//EN" "http://www.w3.org/Graphics/SVG/1.1/DTD/svg11.dtd">
<!-- Creator: CorelDRAW 2018 (64-Bit Evaluation Version) -->
<svg xmlns="http://www.w3.org/2000/svg" xml:space="preserve" width="150.015mm" height="18.0456mm" version="1.1" style="shape-rendering:geometricPrecision; text-rendering:geometricPrecision; image-rendering:optimizeQuality; fill-rule:evenodd; clip-rule:evenodd"
viewBox="0 0 61922.35 7448.77"
 xmlns:xlink="http://www.w3.org/1999/xlink">
 <defs>
  <style type="text/css">
   <![CDATA[
    .fil0 {fill:#00ACB0;fill-rule:nonzero}
   ]]>
  </style>
 </defs>
 <g id="Layer_x0020_3">
  <metadata id="CorelCorpID_0Corel-Layer"/>
  <g id="_2418721116336">
   <path class="fil0" d="M3724.39 1326.62l3724.39 0 0 -1326.62 -3724.39 0c-2057.31,0 -3724.39,1667.12 -3724.39,3724.39 0,2057.27 1667.07,3724.39 3724.39,3724.39l3724.39 0 0 -1326.58 -3724.39 0c-1323.07,0 -2397.81,-1074.78 -2397.81,-2397.81 0,-1323.03 1074.74,-2397.77 2397.81,-2397.77l0 0zm9882 5056.62l-2495.68 -4893.45 -2494.28 4893.45 -541.97 1065.54 1193.21 0 544.82 -1065.54 1298.22 -2551.03 1299.62 2551.03 544.82 1065.54 1191.81 0 -540.57 -1065.54zm5951.93 -4071.98l-1915.4 1475.59 -1914 -1475.59 -1065.5 -821.46 0 5958.98 1065.5 0 0 -3793.9 1044.28 804.46 869.72 671.09 871.16 -671.09 1044.24 -804.46 0 3793.9 1064.09 0 0 -5958.98 -1064.09 821.46zm3521.47 239.78l4350.11 0 0 -1061.24 -4350.11 0c-888.17,0 -1606.07,722.15 -1606.07,1610.32l0 2738.31c0,888.17 717.9,1610.36 1606.07,1610.36l4350.11 0 0 -1061.29 -4350.11 0c-300.79,0 -544.82,-248.28 -544.82,-549.07l0 -1125.1 3833.65 0 0 -1061.29 -3833.65 0 0 -551.92c0,-300.79 244.03,-549.07 544.82,-549.07l0 0zm6994.76 3832.2c-378.84,-49.66 -679.63,-350.45 -729.29,-727.85l0 -4165.6 -1061.24 0 0 4059.19c0,300.79 70.91,583.13 198.63,834.26 180.18,378.84 483.81,683.89 862.62,866.91 251.13,124.86 534.92,195.78 835.7,195.78l3019.2 0 0 -1062.69 -3125.61 0zm5763.21 0c-378.84,-49.66 -679.63,-350.45 -729.29,-727.85l0 -4165.6 -1061.24 0 0 4059.19c0,300.79 70.91,583.13 198.63,834.26 180.18,378.84 483.81,683.89 862.62,866.91 251.13,124.86 534.92,195.78 835.7,195.78l3019.2 0 0 -1062.69 -3125.61 0z"/>
   <path class="fil0" d="M44737.04 2857.15l2793.25 0 0 -994.91 -2793.25 0c-1542.95,0 -2793.29,1250.3 -2793.29,2793.25 0,1542.95 1250.34,2793.29 2793.29,2793.29l2793.25 0 0 -994.95 -2793.25 0c-992.31,0 -1798.38,-806.07 -1798.38,-1798.34 0,-992.27 806.07,-1798.34 1798.38,-1798.34l0 0zm7411.5 3792.49l-1871.77 -3670.11 -1870.7 3670.11 -406.5 799.13 894.94 0 408.61 -799.13 973.65 -1913.29 974.73 1913.29 408.61 799.13 893.86 0 -405.43 -799.13zm4667.21 -2438.96l0 -23.4c0,-666.14 -541.64,-1207.74 -1207.78,-1207.74l-1813.24 0c-666.14,0 -1204.56,541.6 -1204.56,1207.74l0 23.4c0,255.43 79.79,491.66 214.93,685.29 44.7,69.18 97.91,129.82 156.44,185.17 214.93,209.65 507.59,337.32 833.19,337.32l1605.74 0c340.5,0 619.33,275.61 619.33,616.11 0,339.47 -278.83,615.08 -619.33,615.08l-1398.23 0c-339.47,0 -616.11,-275.61 -616.11,-615.08l-795.95 0c0,780.02 632.08,1412.06 1412.06,1412.06l1398.23 0c781.05,0 1415.28,-632.04 1415.28,-1412.06 0,-337.32 -119.21,-648.02 -318.17,-891.72 -15.97,-21.26 -31.95,-42.56 -53.21,-61.71 -257.53,-284.11 -628.9,-461.81 -1043.91,-461.81l-1605.74 0c-225.58,0 -408.61,-183.02 -408.61,-408.65l0 -23.4c0,-225.58 183.02,-408.61 408.61,-408.61l1813.24 0c225.58,0 411.83,183.02 411.83,408.61l0 23.4 795.95 0zm1844.07 -435.19l3262.53 0 0 -795.95 -3262.53 0c-666.14,0 -1204.56,541.6 -1204.56,1207.74l0 2053.72c0,666.14 538.42,1207.78 1204.56,1207.78l3262.53 0 0 -795.95 -3262.53 0c-225.58,0 -408.61,-186.2 -408.61,-411.83l0 -843.84 2875.23 0 0 -795.91 -2875.23 0 0 -413.97c0,-225.58 183.02,-411.78 408.61,-411.78l0 0z"/>
   <path class="fil0" d="M36608.06 4390.07c-411.08,0 -744.44,333.4 -744.44,744.44 0,411.08 333.36,744.44 744.44,744.44 411.04,0 744.44,-333.36 744.44,-744.44 0,-411.04 -333.4,-744.44 -744.44,-744.44l0 0zm0 1223.59c-264.22,0 -479.15,-214.89 -479.15,-479.15 0,-264.22 214.93,-479.15 479.15,-479.15 264.22,0 479.15,214.93 479.15,479.15 0,264.26 -214.93,479.15 -479.15,479.15zm2128.35 -1223.92l0 948.35 -957.27 -738.04 -266.32 -204.98 0 1484.26 266.32 0 0 -943.07 957.27 738.08 265.99 204.98 0 -1489.58 -265.99 0z"/>
  </g>
 </g>
</svg>
