<svg xmlns="http://www.w3.org/2000/svg" xmlns:xlink="http://www.w3.org/1999/xlink" xmlns:lucid="lucid" width="785" height="902"><g transform="translate(-297 -218)" lucid:page-tab-id="0_0"><path d="M0 0h1760v1360H0z" fill="#fff"/><path d="M320 240h171.18v20l-10 10H320z" fill="#fff"/><path d="M491.18 240v20l-10 10H320" stroke="#333" fill="none"/><path d="M320 240h740v860H320z" stroke="#333" fill="none"/><use xlink:href="#a" transform="matrix(1,0,0,1,328,240) translate(0 19.266666666666666)"/><use xlink:href="#b" transform="matrix(1,0,0,1,328,240) translate(60.38518518518519 19.266666666666666)"/><path d="M605.82 326h110c4.4 0 8 3.58 8 8v138c0 4.42-3.6 8-8 8h-304c-4.42 0-8-3.58-8-8V308c0-4.42 3.58-8 8-8h176c4.4 0 9.28 3.34 10.87 7.47zm-202 0h202" stroke="#333" fill="#fff"/><use xlink:href="#c" transform="matrix(1,0,0,1,411.81555995053975,300) translate(0 16.6)"/><path d="M779.82 606H992c4.42 0 8 3.58 8 8v164.26c0 4.42-3.58 8-8 8H411.82c-4.42 0-8-3.58-8-8V588c0-4.42 3.58-8 8-8h342c4.4 0 10.03 2.94 12.55 6.58zm-376 0h376" stroke="#333" fill="#fff"/><use xlink:href="#d" transform="matrix(1,0,0,1,411.81555995053975,580) translate(0 16.6)"/><path d="M605.82 879.74h110c4.4 0 8 3.58 8 8V1052c0 4.42-3.6 8-8 8h-304c-4.42 0-8-3.58-8-8V861.74c0-4.42 3.58-8 8-8h176c4.4 0 9.28 3.34 10.87 7.47zm-202 0h202" stroke="#333" fill="#fff"/><use xlink:href="#e" transform="matrix(1,0,0,1,411.81555995053975,853.7402605104837) translate(0 16.6)"/><path d="M483.82 644.5c0-4.42 3.58-8 8-8h144c4.4 0 8 3.58 8 8v104c0 4.4-3.6 8-8 8h-144c-4.42 0-8-3.6-8-8z" stroke="#333" fill="#fff"/><path d="M633.82 646.5h-15v20h15z" stroke="#333" fill="#fff"/><path d="M623.82 649.83h-10v3.33h10zm0 10h-10v3.33h10z" stroke="#333" fill="#fff"/><use xlink:href="#f" transform="matrix(1,0,0,1,483.81555995053975,636.4961495181622) translate(18.60499999999999 63.15)"/><path d="M563.82 565v-10m0-40c11.04 0 20 8.95 20 20s-8.96 20-20 20c-11.05 0-20-8.95-20-20s8.95-20 20-20z" stroke="#333" fill="#fff"/><path d="M563.02 565v-10h1.6v10z" fill="none"/><path d="M583.82 515h110.9v31.6h-110.9z" fill="#fff" fill-opacity="0"/><use xlink:href="#g" transform="matrix(1,0,0,1,588.8155599505398,520) translate(5.074999999999996 14.4)"/><path d="M760 643c0-4.42 3.58-8 8-8h144c4.42 0 8 3.58 8 8v104c0 4.42-3.58 8-8 8H768c-4.42 0-8-3.58-8-8z" stroke="#333" fill="#fff"/><path d="M910 645h-15v20h15z" stroke="#333" fill="#fff"/><path d="M900 648.33h-10v3.34h10zm0 10h-10v3.34h10z" stroke="#333" fill="#fff"/><use xlink:href="#h" transform="matrix(1,0,0,1,760,635) translate(41.55499999999999 63.15)"/><path d="M483.82 348c0-4.42 3.58-8 8-8h144c4.4 0 8 3.58 8 8v104c0 4.42-3.6 8-8 8h-144c-4.42 0-8-3.58-8-8z" stroke="#333" fill="#fff"/><path d="M633.82 350h-15v20h15z" stroke="#333" fill="#fff"/><path d="M623.82 353.33h-10v3.34h10zm0 10h-10v3.34h10z" stroke="#333" fill="#fff"/><use xlink:href="#i" transform="matrix(1,0,0,1,483.81555995053975,340) translate(28.57999999999999 63.15)"/><path d="M483.82 928c0-4.42 3.58-8 8-8h144c4.4 0 8 3.58 8 8v104c0 4.42-3.6 8-8 8h-144c-4.42 0-8-3.58-8-8z" stroke="#333" fill="#fff"/><path d="M633.82 930h-15v20h15z" stroke="#333" fill="#fff"/><path d="M623.82 933.33h-10v3.34h10zm0 10h-10v3.34h10z" stroke="#333" fill="#fff"/><use xlink:href="#j" transform="matrix(1,0,0,1,483.81555995053975,920) translate(7.130000000000004 63.15)"/><path d="M563.82 565.5v70" stroke="#333" fill="none"/><path d="M564.32 565.5h-1v-.5h1zM564.32 636h-1v-.52h1z" fill="#333"/><g fill="none"><path d="M563.82 505v-10m-20 30c0-11.05 8.95-20 20-20 11.04 0 20 8.95 20 20" stroke="#333"/><path d="M543.82 525c0-11.05 8.95-20 20-20 11.04 0 20 8.95 20 20zM563.82 505c-.45 0-.8-.36-.8-.8v-8.4c0-.44.35-.8.8-.8.44 0 .8.36.8.8v8.4c0 .44-.36.8-.8.8z"/></g><path d="M563.82 494.5V461" stroke="#333" fill="none"/><path d="M564.32 498v-3h-1v-.5h1zM564.32 461h-1v-.5h1z" fill="#333"/><path d="M644.82 696.5h98.3" stroke="#333" fill="none"/><path d="M644.83 697h-.5v-1h.5z" fill="#333"/><path d="M757.88 696.5l-14.26 4.63v-9.27z" stroke="#333" fill="#333"/><path d="M563.82 757.5v145.62" stroke="#333" fill="none"/><path d="M564.32 757.5h-1v-.5h1z" fill="#333"/><path d="M563.82 917.88l-4.64-14.26h9.27z" stroke="#333" fill="#333"/><path d="M508.37 420h110.9v31.6h-110.9z" fill="#fff" fill-opacity="0"/><use xlink:href="#k" transform="matrix(1,0,0,1,513.3655599505398,425) translate(20.525 14.4)"/><path d="M508.37 1000h110.9v31.6h-110.9z" fill="#fff" fill-opacity="0"/><use xlink:href="#l" transform="matrix(1,0,0,1,513.3655599505398,1005) translate(-7.5 14.4)"/><path d="M784.55 719.56h110.9v31.6h-110.9z" fill="#fff" fill-opacity="0"/><g><use xlink:href="#m" transform="matrix(1,0,0,1,789.5500000000001,724.563913817557) translate(-19.974999999999994 14.4)"/></g><defs><path d="M30-248c118-7 216 8 213 122C240-48 200 0 122 0H30v-248zM63-27c89 8 146-16 146-99s-60-101-146-95v194" id="n"/><path d="M30 0v-248h187v28H63v79h144v27H63v87h162V0H30" id="o"/><path d="M137 0h-34L2-248h35l83 218 83-218h36" id="p"/><path d="M135-143c-3-34-86-38-87 0 15 53 115 12 119 90S17 21 10-45l28-5c4 36 97 45 98 0-10-56-113-15-118-90-4-57 82-63 122-42 12 7 21 19 24 35" id="q"/><g id="a"><use transform="matrix(0.05925925925925927,0,0,0.05925925925925927,0,0)" xlink:href="#n"/><use transform="matrix(0.05925925925925927,0,0,0.05925925925925927,15.34814814814815,0)" xlink:href="#o"/><use transform="matrix(0.05925925925925927,0,0,0.05925925925925927,29.570370370370377,0)" xlink:href="#p"/><use transform="matrix(0.05925925925925927,0,0,0.05925925925925927,43.7925925925926,0)" xlink:href="#q"/></g><path d="M190 0L58-211 59 0H30v-248h39L202-35l-2-213h31V0h-41" id="r"/><path d="M100-194c63 0 86 42 84 106H49c0 40 14 67 53 68 26 1 43-12 49-29l28 8c-11 28-37 45-77 45C44 4 14-33 15-96c1-61 26-98 85-98zm52 81c6-60-76-77-97-28-3 7-6 17-6 28h103" id="s"/><path d="M59-47c-2 24 18 29 38 22v24C64 9 27 4 27-40v-127H5v-23h24l9-43h21v43h35v23H59v120" id="t"/><path d="M206 0h-36l-40-164L89 0H53L-1-190h32L70-26l43-164h34l41 164 42-164h31" id="u"/><path d="M100-194c62-1 85 37 85 99 1 63-27 99-86 99S16-35 15-95c0-66 28-99 85-99zM99-20c44 1 53-31 53-75 0-43-8-75-51-75s-53 32-53 75 10 74 51 75" id="v"/><path d="M114-163C36-179 61-72 57 0H25l-1-190h30c1 12-1 29 2 39 6-27 23-49 58-41v29" id="w"/><path d="M143 0L79-87 56-68V0H24v-261h32v163l83-92h37l-77 82L181 0h-38" id="x"/><g id="b"><use transform="matrix(0.05925925925925927,0,0,0.05925925925925927,0,0)" xlink:href="#r"/><use transform="matrix(0.05925925925925927,0,0,0.05925925925925927,15.34814814814815,0)" xlink:href="#s"/><use transform="matrix(0.05925925925925927,0,0,0.05925925925925927,27.200000000000003,0)" xlink:href="#t"/><use transform="matrix(0.05925925925925927,0,0,0.05925925925925927,33.12592592592593,0)" xlink:href="#u"/><use transform="matrix(0.05925925925925927,0,0,0.05925925925925927,48.474074074074075,0)" xlink:href="#v"/><use transform="matrix(0.05925925925925927,0,0,0.05925925925925927,60.32592592592593,0)" xlink:href="#w"/><use transform="matrix(0.05925925925925927,0,0,0.05925925925925927,67.37777777777778,0)" xlink:href="#x"/></g><path fill="#333" d="M30-248c87 1 191-15 191 75 0 78-77 80-158 76V0H30v-248zm33 125c57 0 124 11 124-50 0-59-68-47-124-48v98" id="y"/><path fill="#333" d="M114-163C36-179 61-72 57 0H25l-1-190h30c1 12-1 29 2 39 6-27 23-49 58-41v29" id="z"/><path fill="#333" d="M100-194c63 0 86 42 84 106H49c0 40 14 67 53 68 26 1 43-12 49-29l28 8c-11 28-37 45-77 45C44 4 14-33 15-96c1-61 26-98 85-98zm52 81c6-60-76-77-97-28-3 7-6 17-6 28h103" id="A"/><path fill="#333" d="M135-143c-3-34-86-38-87 0 15 53 115 12 119 90S17 21 10-45l28-5c4 36 97 45 98 0-10-56-113-15-118-90-4-57 82-63 122-42 12 7 21 19 24 35" id="B"/><path fill="#333" d="M117-194c89-4 53 116 60 194h-32v-121c0-31-8-49-39-48C34-167 62-67 57 0H25l-1-190h30c1 10-1 24 2 32 11-22 29-35 61-36" id="C"/><path fill="#333" d="M59-47c-2 24 18 29 38 22v24C64 9 27 4 27-40v-127H5v-23h24l9-43h21v43h35v23H59v120" id="D"/><path fill="#333" d="M141-36C126-15 110 5 73 4 37 3 15-17 15-53c-1-64 63-63 125-63 3-35-9-54-41-54-24 1-41 7-42 31l-33-3c5-37 33-52 76-52 45 0 72 20 72 64v82c-1 20 7 32 28 27v20c-31 9-61-2-59-35zM48-53c0 20 12 33 32 33 41-3 63-29 60-74-43 2-92-5-92 41" id="E"/><path fill="#333" d="M24-231v-30h32v30H24zM24 0v-190h32V0H24" id="F"/><path fill="#333" d="M100-194c62-1 85 37 85 99 1 63-27 99-86 99S16-35 15-95c0-66 28-99 85-99zM99-20c44 1 53-31 53-75 0-43-8-75-51-75s-53 32-53 75 10 74 51 75" id="G"/><g id="c"><use transform="matrix(0.05,0,0,0.05,0,0)" xlink:href="#y"/><use transform="matrix(0.05,0,0,0.05,12,0)" xlink:href="#z"/><use transform="matrix(0.05,0,0,0.05,17.95,0)" xlink:href="#A"/><use transform="matrix(0.05,0,0,0.05,27.950000000000003,0)" xlink:href="#B"/><use transform="matrix(0.05,0,0,0.05,36.95,0)" xlink:href="#A"/><use transform="matrix(0.05,0,0,0.05,46.95,0)" xlink:href="#C"/><use transform="matrix(0.05,0,0,0.05,56.95,0)" xlink:href="#D"/><use transform="matrix(0.05,0,0,0.05,61.95,0)" xlink:href="#E"/><use transform="matrix(0.05,0,0,0.05,71.95,0)" xlink:href="#D"/><use transform="matrix(0.05,0,0,0.05,76.95,0)" xlink:href="#F"/><use transform="matrix(0.05,0,0,0.05,80.9,0)" xlink:href="#G"/><use transform="matrix(0.05,0,0,0.05,90.9,0)" xlink:href="#C"/></g><path fill="#333" d="M30-248c118-7 216 8 213 122C240-48 200 0 122 0H30v-248zM63-27c89 8 146-16 146-99s-60-101-146-95v194" id="H"/><path fill="#333" d="M210-169c-67 3-38 105-44 169h-31v-121c0-29-5-50-35-48C34-165 62-65 56 0H25l-1-190h30c1 10-1 24 2 32 10-44 99-50 107 0 11-21 27-35 58-36 85-2 47 119 55 194h-31v-121c0-29-5-49-35-48" id="I"/><g id="d"><use transform="matrix(0.05,0,0,0.05,0,0)" xlink:href="#H"/><use transform="matrix(0.05,0,0,0.05,12.950000000000001,0)" xlink:href="#G"/><use transform="matrix(0.05,0,0,0.05,22.950000000000003,0)" xlink:href="#I"/><use transform="matrix(0.05,0,0,0.05,37.900000000000006,0)" xlink:href="#E"/><use transform="matrix(0.05,0,0,0.05,47.900000000000006,0)" xlink:href="#F"/><use transform="matrix(0.05,0,0,0.05,51.85,0)" xlink:href="#C"/></g><path fill="#333" d="M33 0v-248h34V0H33" id="J"/><path fill="#333" d="M101-234c-31-9-42 10-38 44h38v23H63V0H32v-167H5v-23h27c-7-52 17-82 69-68v24" id="K"/><path fill="#333" d="M84 4C-5 8 30-112 23-190h32v120c0 31 7 50 39 49 72-2 45-101 50-169h31l1 190h-30c-1-10 1-25-2-33-11 22-28 36-60 37" id="L"/><path fill="#333" d="M96-169c-40 0-48 33-48 73s9 75 48 75c24 0 41-14 43-38l32 2c-6 37-31 61-74 61-59 0-76-41-82-99-10-93 101-131 147-64 4 7 5 14 7 22l-32 3c-4-21-16-35-41-35" id="M"/><g id="e"><use transform="matrix(0.05,0,0,0.05,0,0)" xlink:href="#J"/><use transform="matrix(0.05,0,0,0.05,5,0)" xlink:href="#C"/><use transform="matrix(0.05,0,0,0.05,15,0)" xlink:href="#K"/><use transform="matrix(0.05,0,0,0.05,20,0)" xlink:href="#z"/><use transform="matrix(0.05,0,0,0.05,25.950000000000003,0)" xlink:href="#E"/><use transform="matrix(0.05,0,0,0.05,35.95,0)" xlink:href="#B"/><use transform="matrix(0.05,0,0,0.05,44.95,0)" xlink:href="#D"/><use transform="matrix(0.05,0,0,0.05,49.95,0)" xlink:href="#z"/><use transform="matrix(0.05,0,0,0.05,55.900000000000006,0)" xlink:href="#L"/><use transform="matrix(0.05,0,0,0.05,65.9,0)" xlink:href="#M"/><use transform="matrix(0.05,0,0,0.05,74.9,0)" xlink:href="#D"/><use transform="matrix(0.05,0,0,0.05,79.9,0)" xlink:href="#L"/><use transform="matrix(0.05,0,0,0.05,89.9,0)" xlink:href="#z"/><use transform="matrix(0.05,0,0,0.05,95.85000000000001,0)" xlink:href="#A"/></g><path fill="#333" d="M108 0H70L1-190h34L89-25l56-165h34" id="N"/><path fill="#333" d="M233-177c-1 41-23 64-60 70L243 0h-38l-65-103H63V0H30v-248c88 3 205-21 203 71zM63-129c60-2 137 13 137-47 0-61-80-42-137-45v92" id="O"/><path fill="#333" d="M115-194c55 1 70 41 70 98S169 2 115 4C84 4 66-9 55-30l1 105H24l-1-265h31l2 30c10-21 28-34 59-34zm-8 174c40 0 45-34 45-75s-6-73-45-74c-42 0-51 32-51 76 0 43 10 73 51 73" id="P"/><path fill="#333" d="M179-190L93 31C79 59 56 82 12 73V49c39 6 53-20 64-50L1-190h34L92-34l54-156h33" id="Q"/><g id="f"><use transform="matrix(0.05,0,0,0.05,0,0)" xlink:href="#J"/><use transform="matrix(0.05,0,0,0.05,5,0)" xlink:href="#H"/><use transform="matrix(0.05,0,0,0.05,17.950000000000003,0)" xlink:href="#A"/><use transform="matrix(0.05,0,0,0.05,27.950000000000003,0)" xlink:href="#N"/><use transform="matrix(0.05,0,0,0.05,36.95,0)" xlink:href="#O"/><use transform="matrix(0.05,0,0,0.05,49.900000000000006,0)" xlink:href="#A"/><use transform="matrix(0.05,0,0,0.05,59.900000000000006,0)" xlink:href="#P"/><use transform="matrix(0.05,0,0,0.05,69.9,0)" xlink:href="#G"/><use transform="matrix(0.05,0,0,0.05,79.9,0)" xlink:href="#B"/><use transform="matrix(0.05,0,0,0.05,88.9,0)" xlink:href="#F"/><use transform="matrix(0.05,0,0,0.05,92.85000000000001,0)" xlink:href="#D"/><use transform="matrix(0.05,0,0,0.05,97.85000000000001,0)" xlink:href="#G"/><use transform="matrix(0.05,0,0,0.05,107.85000000000001,0)" xlink:href="#z"/><use transform="matrix(0.05,0,0,0.05,113.80000000000001,0)" xlink:href="#Q"/></g><g id="g"><use transform="matrix(0.05,0,0,0.05,0,0)" xlink:href="#J"/><use transform="matrix(0.05,0,0,0.05,5,0)" xlink:href="#O"/><use transform="matrix(0.05,0,0,0.05,17.950000000000003,0)" xlink:href="#A"/><use transform="matrix(0.05,0,0,0.05,27.950000000000003,0)" xlink:href="#P"/><use transform="matrix(0.05,0,0,0.05,37.95,0)" xlink:href="#G"/><use transform="matrix(0.05,0,0,0.05,47.95,0)" xlink:href="#B"/><use transform="matrix(0.05,0,0,0.05,56.95,0)" xlink:href="#F"/><use transform="matrix(0.05,0,0,0.05,60.900000000000006,0)" xlink:href="#D"/><use transform="matrix(0.05,0,0,0.05,65.9,0)" xlink:href="#G"/><use transform="matrix(0.05,0,0,0.05,75.9,0)" xlink:href="#z"/><use transform="matrix(0.05,0,0,0.05,81.85000000000001,0)" xlink:href="#Q"/></g><path fill="#333" d="M30 0v-248h187v28H63v79h144v27H63v87h162V0H30" id="R"/><g id="h"><use transform="matrix(0.05,0,0,0.05,0,0)" xlink:href="#H"/><use transform="matrix(0.05,0,0,0.05,12.950000000000001,0)" xlink:href="#A"/><use transform="matrix(0.05,0,0,0.05,22.950000000000003,0)" xlink:href="#N"/><use transform="matrix(0.05,0,0,0.05,31.950000000000003,0)" xlink:href="#R"/><use transform="matrix(0.05,0,0,0.05,43.95,0)" xlink:href="#C"/><use transform="matrix(0.05,0,0,0.05,53.95,0)" xlink:href="#D"/><use transform="matrix(0.05,0,0,0.05,58.95,0)" xlink:href="#F"/><use transform="matrix(0.05,0,0,0.05,62.900000000000006,0)" xlink:href="#D"/><use transform="matrix(0.05,0,0,0.05,67.9,0)" xlink:href="#Q"/></g><path fill="#333" d="M240 0l2-218c-23 76-54 145-80 218h-23L58-218 59 0H30v-248h44l77 211c21-75 51-140 76-211h43V0h-30" id="S"/><path fill="#333" d="M177-190C167-65 218 103 67 71c-23-6-38-20-44-43l32-5c15 47 100 32 89-28v-30C133-14 115 1 83 1 29 1 15-40 15-95c0-56 16-97 71-98 29-1 48 16 59 35 1-10 0-23 2-32h30zM94-22c36 0 50-32 50-73 0-42-14-75-50-75-39 0-46 34-46 75s6 73 46 73" id="T"/><g id="i"><use transform="matrix(0.05,0,0,0.05,0,0)" xlink:href="#H"/><use transform="matrix(0.05,0,0,0.05,12.950000000000001,0)" xlink:href="#A"/><use transform="matrix(0.05,0,0,0.05,22.950000000000003,0)" xlink:href="#N"/><use transform="matrix(0.05,0,0,0.05,31.950000000000003,0)" xlink:href="#S"/><use transform="matrix(0.05,0,0,0.05,46.900000000000006,0)" xlink:href="#E"/><use transform="matrix(0.05,0,0,0.05,56.900000000000006,0)" xlink:href="#C"/><use transform="matrix(0.05,0,0,0.05,66.9,0)" xlink:href="#E"/><use transform="matrix(0.05,0,0,0.05,76.9,0)" xlink:href="#T"/><use transform="matrix(0.05,0,0,0.05,86.9,0)" xlink:href="#A"/><use transform="matrix(0.05,0,0,0.05,96.9,0)" xlink:href="#z"/></g><path fill="#333" d="M30 0v-248h33v221h125V0H30" id="U"/><g id="j"><use transform="matrix(0.05,0,0,0.05,0,0)" xlink:href="#H"/><use transform="matrix(0.05,0,0,0.05,12.950000000000001,0)" xlink:href="#A"/><use transform="matrix(0.05,0,0,0.05,22.950000000000003,0)" xlink:href="#N"/><use transform="matrix(0.05,0,0,0.05,31.950000000000003,0)" xlink:href="#U"/><use transform="matrix(0.05,0,0,0.05,41.95,0)" xlink:href="#F"/><use transform="matrix(0.05,0,0,0.05,45.900000000000006,0)" xlink:href="#B"/><use transform="matrix(0.05,0,0,0.05,54.900000000000006,0)" xlink:href="#D"/><use transform="matrix(0.05,0,0,0.05,59.900000000000006,0)" xlink:href="#O"/><use transform="matrix(0.05,0,0,0.05,72.85000000000001,0)" xlink:href="#A"/><use transform="matrix(0.05,0,0,0.05,82.85000000000001,0)" xlink:href="#P"/><use transform="matrix(0.05,0,0,0.05,92.85000000000001,0)" xlink:href="#G"/><use transform="matrix(0.05,0,0,0.05,102.85000000000001,0)" xlink:href="#B"/><use transform="matrix(0.05,0,0,0.05,111.85000000000001,0)" xlink:href="#F"/><use transform="matrix(0.05,0,0,0.05,115.80000000000001,0)" xlink:href="#D"/><use transform="matrix(0.05,0,0,0.05,120.80000000000001,0)" xlink:href="#G"/><use transform="matrix(0.05,0,0,0.05,130.8,0)" xlink:href="#z"/><use transform="matrix(0.05,0,0,0.05,136.75,0)" xlink:href="#Q"/></g><path fill="#333" d="M18-100v-36l175-74v27L42-118l151 64v27" id="V"/><path fill="#333" d="M232-93c-1 65-40 97-104 97C67 4 28-28 28-90v-158h33c8 89-33 224 67 224 102 0 64-133 71-224h33v155" id="W"/><path fill="#333" d="M18-27v-27l151-64-151-65v-27l175 74v36" id="X"/><g id="k"><use transform="matrix(0.05,0,0,0.05,0,0)" xlink:href="#V"/><use transform="matrix(0.05,0,0,0.05,10.5,0)" xlink:href="#V"/><use transform="matrix(0.05,0,0,0.05,21,0)" xlink:href="#W"/><use transform="matrix(0.05,0,0,0.05,33.95,0)" xlink:href="#J"/><use transform="matrix(0.05,0,0,0.05,38.95,0)" xlink:href="#X"/><use transform="matrix(0.05,0,0,0.05,49.45,0)" xlink:href="#X"/></g><path fill="#333" d="M85-194c31 0 48 13 60 33l-1-100h32l1 261h-30c-2-10 0-23-3-31C134-8 116 4 85 4 32 4 16-35 15-94c0-66 23-100 70-100zm9 24c-40 0-46 34-46 75 0 40 6 74 45 74 42 0 51-32 51-76 0-42-9-74-50-73" id="Y"/><path fill="#333" d="M115-194c53 0 69 39 70 98 0 66-23 100-70 100C84 3 66-7 56-30L54 0H23l1-261h32v101c10-23 28-34 59-34zm-8 174c40 0 45-34 45-75 0-40-5-75-45-74-42 0-51 32-51 76 0 43 10 73 51 73" id="Z"/><g id="l"><use transform="matrix(0.05,0,0,0.05,0,0)" xlink:href="#V"/><use transform="matrix(0.05,0,0,0.05,10.5,0)" xlink:href="#V"/><use transform="matrix(0.05,0,0,0.05,21,0)" xlink:href="#Y"/><use transform="matrix(0.05,0,0,0.05,31,0)" xlink:href="#E"/><use transform="matrix(0.05,0,0,0.05,41,0)" xlink:href="#D"/><use transform="matrix(0.05,0,0,0.05,46,0)" xlink:href="#E"/><use transform="matrix(0.05,0,0,0.05,56,0)" xlink:href="#Z"/><use transform="matrix(0.05,0,0,0.05,66,0)" xlink:href="#E"/><use transform="matrix(0.05,0,0,0.05,76,0)" xlink:href="#B"/><use transform="matrix(0.05,0,0,0.05,85,0)" xlink:href="#A"/><use transform="matrix(0.05,0,0,0.05,95,0)" xlink:href="#X"/><use transform="matrix(0.05,0,0,0.05,105.5,0)" xlink:href="#X"/></g><g id="m"><use transform="matrix(0.05,0,0,0.05,0,0)" xlink:href="#V"/><use transform="matrix(0.05,0,0,0.05,10.5,0)" xlink:href="#V"/><use transform="matrix(0.05,0,0,0.05,21,0)" xlink:href="#M"/><use transform="matrix(0.05,0,0,0.05,30,0)" xlink:href="#G"/><use transform="matrix(0.05,0,0,0.05,40,0)" xlink:href="#I"/><use transform="matrix(0.05,0,0,0.05,54.95,0)" xlink:href="#P"/><use transform="matrix(0.05,0,0,0.05,64.95,0)" xlink:href="#G"/><use transform="matrix(0.05,0,0,0.05,74.95,0)" xlink:href="#C"/><use transform="matrix(0.05,0,0,0.05,84.95,0)" xlink:href="#A"/><use transform="matrix(0.05,0,0,0.05,94.95,0)" xlink:href="#C"/><use transform="matrix(0.05,0,0,0.05,104.95,0)" xlink:href="#D"/><use transform="matrix(0.05,0,0,0.05,109.95,0)" xlink:href="#A"/><use transform="matrix(0.05,0,0,0.05,119.95,0)" xlink:href="#X"/><use transform="matrix(0.05,0,0,0.05,130.45,0)" xlink:href="#X"/></g></defs></g></svg>