<svg xmlns="http://www.w3.org/2000/svg" xmlns:xlink="http://www.w3.org/1999/xlink" xmlns:lucid="lucid" width="783" height="909"><g transform="translate(-297 -216)" lucid:page-tab-id="0_0"><path d="M0 0h1760v1360H0z" fill="#fff"/><path d="M320 240h171.18v20l-10 10H320z" fill="#fff"/><path d="M491.18 240v20l-10 10H320" stroke="#333" fill="none"/><path d="M320 240h740v860H320z" stroke="#333" fill="none"/><use xlink:href="#a" transform="matrix(1,0,0,1,328,240) translate(0 19.266666666666666)"/><use xlink:href="#b" transform="matrix(1,0,0,1,328,240) translate(60.38518518518519 19.266666666666666)"/><path d="M605.82 326h110c4.4 0 8 3.58 8 8v138c0 4.42-3.6 8-8 8h-304c-4.42 0-8-3.58-8-8V308c0-4.42 3.58-8 8-8h176c4.4 0 9.28 3.34 10.87 7.47zm-202 0h202" stroke="#333" fill="#fff"/><use xlink:href="#c" transform="matrix(1,0,0,1,411.81555995053975,300) translate(0 16.6)"/><path d="M779.82 606H992c4.42 0 8 3.58 8 8v164.26c0 4.42-3.58 8-8 8H411.82c-4.42 0-8-3.58-8-8V588c0-4.42 3.58-8 8-8h342c4.4 0 10.03 2.94 12.55 6.58zm-376 0h376" stroke="#333" fill="#fff"/><use xlink:href="#d" transform="matrix(1,0,0,1,411.81555995053975,580) translate(0 16.6)"/><path d="M766.82 879.74H972c4.42 0 8 3.58 8 8V1052c0 4.42-3.58 8-8 8H411.82c-4.42 0-8-3.58-8-8V861.74c0-4.42 3.58-8 8-8h330c4.4 0 9.96 3 12.37 6.7zm-363 0h363" stroke="#333" fill="#fff"/><use xlink:href="#e" transform="matrix(1,0,0,1,411.81555995053975,853.7402605104837) translate(0 16.6)"/><path d="M483.82 644.5c0-4.42 3.58-8 8-8h144c4.4 0 8 3.58 8 8v104c0 4.4-3.6 8-8 8h-144c-4.42 0-8-3.6-8-8z" stroke="#333" fill="#fff"/><path d="M633.82 646.5h-15v20h15z" stroke="#333" fill="#fff"/><path d="M623.82 649.83h-10v3.33h10zm0 10h-10v3.33h10z" stroke="#333" fill="#fff"/><use xlink:href="#f" transform="matrix(1,0,0,1,483.81555995053975,636.4961495181622) translate(18.60499999999999 63.15)"/><path d="M563.82 565v-10m0-40c11.04 0 20 8.95 20 20s-8.96 20-20 20c-11.05 0-20-8.95-20-20s8.95-20 20-20z" stroke="#333" fill="#fff"/><path d="M563.02 565v-10h1.6v10z" fill="none"/><path d="M583.82 515h110.9v31.6h-110.9z" fill="#fff" fill-opacity="0"/><use xlink:href="#g" transform="matrix(1,0,0,1,588.8155599505398,520) translate(5.074999999999996 14.4)"/><path d="M760 643c0-4.42 3.58-8 8-8h164c4.42 0 8 3.58 8 8v104c0 4.42-3.58 8-8 8H768c-4.42 0-8-3.58-8-8z" stroke="#333" fill="#fff"/><path d="M930 645h-15v20h15z" stroke="#333" fill="#fff"/><path d="M920 648.33h-10v3.34h10zm0 10h-10v3.34h10z" stroke="#333" fill="#fff"/><use xlink:href="#h" transform="matrix(1,0,0,1,760,635) translate(51.55499999999999 63.15)"/><path d="M483.82 348c0-4.42 3.58-8 8-8h144c4.4 0 8 3.58 8 8v104c0 4.42-3.6 8-8 8h-144c-4.42 0-8-3.58-8-8z" stroke="#333" fill="#fff"/><path d="M633.82 350h-15v20h15z" stroke="#333" fill="#fff"/><path d="M623.82 353.33h-10v3.34h10zm0 10h-10v3.34h10z" stroke="#333" fill="#fff"/><use xlink:href="#i" transform="matrix(1,0,0,1,483.81555995053975,340) translate(28.57999999999999 63.15)"/><path d="M483.82 928c0-4.42 3.58-8 8-8h144c4.4 0 8 3.58 8 8v104c0 4.42-3.6 8-8 8h-144c-4.42 0-8-3.58-8-8z" stroke="#333" fill="#fff"/><path d="M633.82 930h-15v20h15z" stroke="#333" fill="#fff"/><path d="M623.82 933.33h-10v3.34h10zm0 10h-10v3.34h10z" stroke="#333" fill="#fff"/><use xlink:href="#j" transform="matrix(1,0,0,1,483.81555995053975,920) translate(7.130000000000004 63.15)"/><path d="M563.82 565.5v70" stroke="#333" fill="none"/><path d="M564.32 565.5h-1v-.5h1zM564.32 636h-1v-.52h1z" fill="#333"/><g fill="none"><path d="M563.82 505v-10m-20 30c0-11.05 8.95-20 20-20 11.04 0 20 8.95 20 20" stroke="#333"/><path d="M543.82 525c0-11.05 8.95-20 20-20 11.04 0 20 8.95 20 20zM563.82 505c-.45 0-.8-.36-.8-.8v-8.4c0-.44.35-.8.8-.8.44 0 .8.36.8.8v8.4c0 .44-.36.8-.8.8z"/></g><path d="M563.82 494.5V461" stroke="#333" fill="none"/><path d="M564.32 498v-3h-1v-.5h1zM564.32 461h-1v-.5h1z" fill="#333"/><path d="M644.82 696.5H743.12" stroke="#333" fill="none"/><path d="M644.83 697h-.5v-1h.5z" fill="#333"/><path d="M757.88 696.5l-14.26 4.63v-9.27z" stroke="#333" fill="#333"/><path d="M563.82 757.5v145.62" stroke="#333" fill="none"/><path d="M564.32 757.5h-1v-.5h1z" fill="#333"/><path d="M563.82 917.88l-4.64-14.26h9.27z" stroke="#333" fill="#333"/><path d="M508.37 406.8h110.9V460h-110.9z" fill="#fff" fill-opacity="0"/><use xlink:href="#k" transform="matrix(1,0,0,1,513.3655599505398,411.8) translate(12.167901234567907 10.844444444444445)"/><use xlink:href="#l" transform="matrix(1,0,0,1,513.3655599505398,411.8) translate(9.174382716049386 27.11111111111111)"/><path d="M723.82 928c0-4.42 3.58-8 8-8h144c4.4 0 8 3.58 8 8v104c0 4.42-3.6 8-8 8h-144c-4.42 0-8-3.58-8-8z" stroke="#333" fill="#fff"/><path d="M873.82 930h-15v20h15z" stroke="#333" fill="#fff"/><path d="M863.82 933.33h-10v3.34h10zm0 10h-10v3.34h10z" stroke="#333" fill="#fff"/><use xlink:href="#m" transform="matrix(1,0,0,1,723.8155599505398,920) translate(61.005 63.15)"/><path d="M748.37 1000h110.9v31.6h-110.9z" fill="#fff" fill-opacity="0"/><use xlink:href="#n" transform="matrix(1,0,0,1,753.3655599505398,1005) translate(-7.5 14.4)"/><path d="M800 709.72h110.9v42.54H800z" fill="#fff" fill-opacity="0"/><use xlink:href="#o" transform="matrix(1,0,0,1,805,714.7241493992657) translate(-13.13580246913579 10.844444444444445)"/><use xlink:href="#p" transform="matrix(1,0,0,1,805,714.7241493992657) translate(-23.1895061728395 27.11111111111111)"/><path d="M644.82 980h62.1" stroke="#333" fill="none"/><path d="M644.83 980.5h-.5v-1h.5z" fill="#333"/><path d="M721.7 980l-14.27 4.64v-9.28z" stroke="#333" fill="#333"/><path d="M508.37 709.72h110.9v53.2h-110.9z" fill="#fff" fill-opacity="0"/><g><use xlink:href="#q" transform="matrix(1,0,0,1,513.3655599505396,714.7241493992657) translate(17.42067901234568 10.844444444444445)"/><use xlink:href="#r" transform="matrix(1,0,0,1,513.3655599505396,714.7241493992657) translate(9.927469135802475 27.11111111111111)"/></g><path d="M508.37 989.2h110.9v53.2h-110.9z" fill="#fff" fill-opacity="0"/><g><use xlink:href="#s" transform="matrix(1,0,0,1,513.3655599505396,994.1999999999999) translate(12.544444444444451 10.844444444444445)"/><use xlink:href="#t" transform="matrix(1,0,0,1,513.3655599505396,994.1999999999999) translate(-27.293827160493834 27.11111111111111)"/></g><defs><path d="M30-248c118-7 216 8 213 122C240-48 200 0 122 0H30v-248zM63-27c89 8 146-16 146-99s-60-101-146-95v194" id="u"/><path d="M30 0v-248h187v28H63v79h144v27H63v87h162V0H30" id="v"/><path d="M137 0h-34L2-248h35l83 218 83-218h36" id="w"/><path d="M135-143c-3-34-86-38-87 0 15 53 115 12 119 90S17 21 10-45l28-5c4 36 97 45 98 0-10-56-113-15-118-90-4-57 82-63 122-42 12 7 21 19 24 35" id="x"/><g id="a"><use transform="matrix(0.05925925925925927,0,0,0.05925925925925927,0,0)" xlink:href="#u"/><use transform="matrix(0.05925925925925927,0,0,0.05925925925925927,15.34814814814815,0)" xlink:href="#v"/><use transform="matrix(0.05925925925925927,0,0,0.05925925925925927,29.570370370370377,0)" xlink:href="#w"/><use transform="matrix(0.05925925925925927,0,0,0.05925925925925927,43.7925925925926,0)" xlink:href="#x"/></g><path d="M190 0L58-211 59 0H30v-248h39L202-35l-2-213h31V0h-41" id="y"/><path d="M100-194c63 0 86 42 84 106H49c0 40 14 67 53 68 26 1 43-12 49-29l28 8c-11 28-37 45-77 45C44 4 14-33 15-96c1-61 26-98 85-98zm52 81c6-60-76-77-97-28-3 7-6 17-6 28h103" id="z"/><path d="M59-47c-2 24 18 29 38 22v24C64 9 27 4 27-40v-127H5v-23h24l9-43h21v43h35v23H59v120" id="A"/><path d="M206 0h-36l-40-164L89 0H53L-1-190h32L70-26l43-164h34l41 164 42-164h31" id="B"/><path d="M100-194c62-1 85 37 85 99 1 63-27 99-86 99S16-35 15-95c0-66 28-99 85-99zM99-20c44 1 53-31 53-75 0-43-8-75-51-75s-53 32-53 75 10 74 51 75" id="C"/><path d="M114-163C36-179 61-72 57 0H25l-1-190h30c1 12-1 29 2 39 6-27 23-49 58-41v29" id="D"/><path d="M143 0L79-87 56-68V0H24v-261h32v163l83-92h37l-77 82L181 0h-38" id="E"/><g id="b"><use transform="matrix(0.05925925925925927,0,0,0.05925925925925927,0,0)" xlink:href="#y"/><use transform="matrix(0.05925925925925927,0,0,0.05925925925925927,15.34814814814815,0)" xlink:href="#z"/><use transform="matrix(0.05925925925925927,0,0,0.05925925925925927,27.200000000000003,0)" xlink:href="#A"/><use transform="matrix(0.05925925925925927,0,0,0.05925925925925927,33.12592592592593,0)" xlink:href="#B"/><use transform="matrix(0.05925925925925927,0,0,0.05925925925925927,48.474074074074075,0)" xlink:href="#C"/><use transform="matrix(0.05925925925925927,0,0,0.05925925925925927,60.32592592592593,0)" xlink:href="#D"/><use transform="matrix(0.05925925925925927,0,0,0.05925925925925927,67.37777777777778,0)" xlink:href="#E"/></g><path fill="#333" d="M30-248c87 1 191-15 191 75 0 78-77 80-158 76V0H30v-248zm33 125c57 0 124 11 124-50 0-59-68-47-124-48v98" id="F"/><path fill="#333" d="M114-163C36-179 61-72 57 0H25l-1-190h30c1 12-1 29 2 39 6-27 23-49 58-41v29" id="G"/><path fill="#333" d="M100-194c63 0 86 42 84 106H49c0 40 14 67 53 68 26 1 43-12 49-29l28 8c-11 28-37 45-77 45C44 4 14-33 15-96c1-61 26-98 85-98zm52 81c6-60-76-77-97-28-3 7-6 17-6 28h103" id="H"/><path fill="#333" d="M135-143c-3-34-86-38-87 0 15 53 115 12 119 90S17 21 10-45l28-5c4 36 97 45 98 0-10-56-113-15-118-90-4-57 82-63 122-42 12 7 21 19 24 35" id="I"/><path fill="#333" d="M117-194c89-4 53 116 60 194h-32v-121c0-31-8-49-39-48C34-167 62-67 57 0H25l-1-190h30c1 10-1 24 2 32 11-22 29-35 61-36" id="J"/><path fill="#333" d="M59-47c-2 24 18 29 38 22v24C64 9 27 4 27-40v-127H5v-23h24l9-43h21v43h35v23H59v120" id="K"/><path fill="#333" d="M141-36C126-15 110 5 73 4 37 3 15-17 15-53c-1-64 63-63 125-63 3-35-9-54-41-54-24 1-41 7-42 31l-33-3c5-37 33-52 76-52 45 0 72 20 72 64v82c-1 20 7 32 28 27v20c-31 9-61-2-59-35zM48-53c0 20 12 33 32 33 41-3 63-29 60-74-43 2-92-5-92 41" id="L"/><path fill="#333" d="M24-231v-30h32v30H24zM24 0v-190h32V0H24" id="M"/><path fill="#333" d="M100-194c62-1 85 37 85 99 1 63-27 99-86 99S16-35 15-95c0-66 28-99 85-99zM99-20c44 1 53-31 53-75 0-43-8-75-51-75s-53 32-53 75 10 74 51 75" id="N"/><g id="c"><use transform="matrix(0.05,0,0,0.05,0,0)" xlink:href="#F"/><use transform="matrix(0.05,0,0,0.05,12,0)" xlink:href="#G"/><use transform="matrix(0.05,0,0,0.05,17.95,0)" xlink:href="#H"/><use transform="matrix(0.05,0,0,0.05,27.950000000000003,0)" xlink:href="#I"/><use transform="matrix(0.05,0,0,0.05,36.95,0)" xlink:href="#H"/><use transform="matrix(0.05,0,0,0.05,46.95,0)" xlink:href="#J"/><use transform="matrix(0.05,0,0,0.05,56.95,0)" xlink:href="#K"/><use transform="matrix(0.05,0,0,0.05,61.95,0)" xlink:href="#L"/><use transform="matrix(0.05,0,0,0.05,71.95,0)" xlink:href="#K"/><use transform="matrix(0.05,0,0,0.05,76.95,0)" xlink:href="#M"/><use transform="matrix(0.05,0,0,0.05,80.9,0)" xlink:href="#N"/><use transform="matrix(0.05,0,0,0.05,90.9,0)" xlink:href="#J"/></g><path fill="#333" d="M30-248c118-7 216 8 213 122C240-48 200 0 122 0H30v-248zM63-27c89 8 146-16 146-99s-60-101-146-95v194" id="O"/><path fill="#333" d="M210-169c-67 3-38 105-44 169h-31v-121c0-29-5-50-35-48C34-165 62-65 56 0H25l-1-190h30c1 10-1 24 2 32 10-44 99-50 107 0 11-21 27-35 58-36 85-2 47 119 55 194h-31v-121c0-29-5-49-35-48" id="P"/><g id="d"><use transform="matrix(0.05,0,0,0.05,0,0)" xlink:href="#O"/><use transform="matrix(0.05,0,0,0.05,12.950000000000001,0)" xlink:href="#N"/><use transform="matrix(0.05,0,0,0.05,22.950000000000003,0)" xlink:href="#P"/><use transform="matrix(0.05,0,0,0.05,37.900000000000006,0)" xlink:href="#L"/><use transform="matrix(0.05,0,0,0.05,47.900000000000006,0)" xlink:href="#M"/><use transform="matrix(0.05,0,0,0.05,51.85,0)" xlink:href="#J"/></g><path fill="#333" d="M33 0v-248h34V0H33" id="Q"/><path fill="#333" d="M101-234c-31-9-42 10-38 44h38v23H63V0H32v-167H5v-23h27c-7-52 17-82 69-68v24" id="R"/><path fill="#333" d="M84 4C-5 8 30-112 23-190h32v120c0 31 7 50 39 49 72-2 45-101 50-169h31l1 190h-30c-1-10 1-25-2-33-11 22-28 36-60 37" id="S"/><path fill="#333" d="M96-169c-40 0-48 33-48 73s9 75 48 75c24 0 41-14 43-38l32 2c-6 37-31 61-74 61-59 0-76-41-82-99-10-93 101-131 147-64 4 7 5 14 7 22l-32 3c-4-21-16-35-41-35" id="T"/><g id="e"><use transform="matrix(0.05,0,0,0.05,0,0)" xlink:href="#Q"/><use transform="matrix(0.05,0,0,0.05,5,0)" xlink:href="#J"/><use transform="matrix(0.05,0,0,0.05,15,0)" xlink:href="#R"/><use transform="matrix(0.05,0,0,0.05,20,0)" xlink:href="#G"/><use transform="matrix(0.05,0,0,0.05,25.950000000000003,0)" xlink:href="#L"/><use transform="matrix(0.05,0,0,0.05,35.95,0)" xlink:href="#I"/><use transform="matrix(0.05,0,0,0.05,44.95,0)" xlink:href="#K"/><use transform="matrix(0.05,0,0,0.05,49.95,0)" xlink:href="#G"/><use transform="matrix(0.05,0,0,0.05,55.900000000000006,0)" xlink:href="#S"/><use transform="matrix(0.05,0,0,0.05,65.9,0)" xlink:href="#T"/><use transform="matrix(0.05,0,0,0.05,74.9,0)" xlink:href="#K"/><use transform="matrix(0.05,0,0,0.05,79.9,0)" xlink:href="#S"/><use transform="matrix(0.05,0,0,0.05,89.9,0)" xlink:href="#G"/><use transform="matrix(0.05,0,0,0.05,95.85000000000001,0)" xlink:href="#H"/></g><path fill="#333" d="M108 0H70L1-190h34L89-25l56-165h34" id="U"/><path fill="#333" d="M233-177c-1 41-23 64-60 70L243 0h-38l-65-103H63V0H30v-248c88 3 205-21 203 71zM63-129c60-2 137 13 137-47 0-61-80-42-137-45v92" id="V"/><path fill="#333" d="M115-194c55 1 70 41 70 98S169 2 115 4C84 4 66-9 55-30l1 105H24l-1-265h31l2 30c10-21 28-34 59-34zm-8 174c40 0 45-34 45-75s-6-73-45-74c-42 0-51 32-51 76 0 43 10 73 51 73" id="W"/><path fill="#333" d="M179-190L93 31C79 59 56 82 12 73V49c39 6 53-20 64-50L1-190h34L92-34l54-156h33" id="X"/><g id="f"><use transform="matrix(0.05,0,0,0.05,0,0)" xlink:href="#Q"/><use transform="matrix(0.05,0,0,0.05,5,0)" xlink:href="#O"/><use transform="matrix(0.05,0,0,0.05,17.950000000000003,0)" xlink:href="#H"/><use transform="matrix(0.05,0,0,0.05,27.950000000000003,0)" xlink:href="#U"/><use transform="matrix(0.05,0,0,0.05,36.95,0)" xlink:href="#V"/><use transform="matrix(0.05,0,0,0.05,49.900000000000006,0)" xlink:href="#H"/><use transform="matrix(0.05,0,0,0.05,59.900000000000006,0)" xlink:href="#W"/><use transform="matrix(0.05,0,0,0.05,69.9,0)" xlink:href="#N"/><use transform="matrix(0.05,0,0,0.05,79.9,0)" xlink:href="#I"/><use transform="matrix(0.05,0,0,0.05,88.9,0)" xlink:href="#M"/><use transform="matrix(0.05,0,0,0.05,92.85000000000001,0)" xlink:href="#K"/><use transform="matrix(0.05,0,0,0.05,97.85000000000001,0)" xlink:href="#N"/><use transform="matrix(0.05,0,0,0.05,107.85000000000001,0)" xlink:href="#G"/><use transform="matrix(0.05,0,0,0.05,113.80000000000001,0)" xlink:href="#X"/></g><g id="g"><use transform="matrix(0.05,0,0,0.05,0,0)" xlink:href="#Q"/><use transform="matrix(0.05,0,0,0.05,5,0)" xlink:href="#V"/><use transform="matrix(0.05,0,0,0.05,17.950000000000003,0)" xlink:href="#H"/><use transform="matrix(0.05,0,0,0.05,27.950000000000003,0)" xlink:href="#W"/><use transform="matrix(0.05,0,0,0.05,37.95,0)" xlink:href="#N"/><use transform="matrix(0.05,0,0,0.05,47.95,0)" xlink:href="#I"/><use transform="matrix(0.05,0,0,0.05,56.95,0)" xlink:href="#M"/><use transform="matrix(0.05,0,0,0.05,60.900000000000006,0)" xlink:href="#K"/><use transform="matrix(0.05,0,0,0.05,65.9,0)" xlink:href="#N"/><use transform="matrix(0.05,0,0,0.05,75.9,0)" xlink:href="#G"/><use transform="matrix(0.05,0,0,0.05,81.85000000000001,0)" xlink:href="#X"/></g><path fill="#333" d="M30 0v-248h187v28H63v79h144v27H63v87h162V0H30" id="Y"/><g id="h"><use transform="matrix(0.05,0,0,0.05,0,0)" xlink:href="#O"/><use transform="matrix(0.05,0,0,0.05,12.950000000000001,0)" xlink:href="#H"/><use transform="matrix(0.05,0,0,0.05,22.950000000000003,0)" xlink:href="#U"/><use transform="matrix(0.05,0,0,0.05,31.950000000000003,0)" xlink:href="#Y"/><use transform="matrix(0.05,0,0,0.05,43.95,0)" xlink:href="#J"/><use transform="matrix(0.05,0,0,0.05,53.95,0)" xlink:href="#K"/><use transform="matrix(0.05,0,0,0.05,58.95,0)" xlink:href="#M"/><use transform="matrix(0.05,0,0,0.05,62.900000000000006,0)" xlink:href="#K"/><use transform="matrix(0.05,0,0,0.05,67.9,0)" xlink:href="#X"/></g><path fill="#333" d="M240 0l2-218c-23 76-54 145-80 218h-23L58-218 59 0H30v-248h44l77 211c21-75 51-140 76-211h43V0h-30" id="Z"/><path fill="#333" d="M177-190C167-65 218 103 67 71c-23-6-38-20-44-43l32-5c15 47 100 32 89-28v-30C133-14 115 1 83 1 29 1 15-40 15-95c0-56 16-97 71-98 29-1 48 16 59 35 1-10 0-23 2-32h30zM94-22c36 0 50-32 50-73 0-42-14-75-50-75-39 0-46 34-46 75s6 73 46 73" id="aa"/><g id="i"><use transform="matrix(0.05,0,0,0.05,0,0)" xlink:href="#O"/><use transform="matrix(0.05,0,0,0.05,12.950000000000001,0)" xlink:href="#H"/><use transform="matrix(0.05,0,0,0.05,22.950000000000003,0)" xlink:href="#U"/><use transform="matrix(0.05,0,0,0.05,31.950000000000003,0)" xlink:href="#Z"/><use transform="matrix(0.05,0,0,0.05,46.900000000000006,0)" xlink:href="#L"/><use transform="matrix(0.05,0,0,0.05,56.900000000000006,0)" xlink:href="#J"/><use transform="matrix(0.05,0,0,0.05,66.9,0)" xlink:href="#L"/><use transform="matrix(0.05,0,0,0.05,76.9,0)" xlink:href="#aa"/><use transform="matrix(0.05,0,0,0.05,86.9,0)" xlink:href="#H"/><use transform="matrix(0.05,0,0,0.05,96.9,0)" xlink:href="#G"/></g><path fill="#333" d="M30 0v-248h33v221h125V0H30" id="ab"/><g id="j"><use transform="matrix(0.05,0,0,0.05,0,0)" xlink:href="#O"/><use transform="matrix(0.05,0,0,0.05,12.950000000000001,0)" xlink:href="#H"/><use transform="matrix(0.05,0,0,0.05,22.950000000000003,0)" xlink:href="#U"/><use transform="matrix(0.05,0,0,0.05,31.950000000000003,0)" xlink:href="#ab"/><use transform="matrix(0.05,0,0,0.05,41.95,0)" xlink:href="#M"/><use transform="matrix(0.05,0,0,0.05,45.900000000000006,0)" xlink:href="#I"/><use transform="matrix(0.05,0,0,0.05,54.900000000000006,0)" xlink:href="#K"/><use transform="matrix(0.05,0,0,0.05,59.900000000000006,0)" xlink:href="#V"/><use transform="matrix(0.05,0,0,0.05,72.85000000000001,0)" xlink:href="#H"/><use transform="matrix(0.05,0,0,0.05,82.85000000000001,0)" xlink:href="#W"/><use transform="matrix(0.05,0,0,0.05,92.85000000000001,0)" xlink:href="#N"/><use transform="matrix(0.05,0,0,0.05,102.85000000000001,0)" xlink:href="#I"/><use transform="matrix(0.05,0,0,0.05,111.85000000000001,0)" xlink:href="#M"/><use transform="matrix(0.05,0,0,0.05,115.80000000000001,0)" xlink:href="#K"/><use transform="matrix(0.05,0,0,0.05,120.80000000000001,0)" xlink:href="#N"/><use transform="matrix(0.05,0,0,0.05,130.8,0)" xlink:href="#G"/><use transform="matrix(0.05,0,0,0.05,136.75,0)" xlink:href="#X"/></g><path fill="#333" d="M185-189c-5-48-123-54-124 2 14 75 158 14 163 119 3 78-121 87-175 55-17-10-28-26-33-46l33-7c5 56 141 63 141-1 0-78-155-14-162-118-5-82 145-84 179-34 5 7 8 16 11 25" id="ac"/><path fill="#333" d="M106-169C34-169 62-67 57 0H25v-261h32l-1 103c12-21 28-36 61-36 89 0 53 116 60 194h-32v-121c2-32-8-49-39-48" id="ad"/><path fill="#333" d="M206 0h-36l-40-164L89 0H53L-1-190h32L70-26l43-164h34l41 164 42-164h31" id="ae"/><path fill="#333" d="M87 75C49 33 22-17 22-94c0-76 28-126 65-167h31c-38 41-64 92-64 168S80 34 118 75H87" id="af"/><path fill="#333" d="M33-261c38 41 65 92 65 168S71 34 33 75H2C39 34 66-17 66-93S39-220 2-261h31" id="ag"/><g id="k"><use transform="matrix(0.03765432098765432,0,0,0.03765432098765432,0,0)" xlink:href="#ac"/><use transform="matrix(0.03765432098765432,0,0,0.03765432098765432,9.037037037037036,0)" xlink:href="#ad"/><use transform="matrix(0.03765432098765432,0,0,0.03765432098765432,16.5679012345679,0)" xlink:href="#N"/><use transform="matrix(0.03765432098765432,0,0,0.03765432098765432,24.098765432098762,0)" xlink:href="#ae"/><use transform="matrix(0.03765432098765432,0,0,0.03765432098765432,33.85123456790123,0)" xlink:href="#Z"/><use transform="matrix(0.03765432098765432,0,0,0.03765432098765432,45.10987654320987,0)" xlink:href="#H"/><use transform="matrix(0.03765432098765432,0,0,0.03765432098765432,52.64074074074074,0)" xlink:href="#J"/><use transform="matrix(0.03765432098765432,0,0,0.03765432098765432,60.1716049382716,0)" xlink:href="#S"/><use transform="matrix(0.03765432098765432,0,0,0.03765432098765432,67.70246913580246,0)" xlink:href="#af"/><use transform="matrix(0.03765432098765432,0,0,0.03765432098765432,72.18333333333332,0)" xlink:href="#ag"/></g><path fill="#333" d="M85-194c31 0 48 13 60 33l-1-100h32l1 261h-30c-2-10 0-23-3-31C134-8 116 4 85 4 32 4 16-35 15-94c0-66 23-100 70-100zm9 24c-40 0-46 34-46 75 0 40 6 74 45 74 42 0 51-32 51-76 0-42-9-74-50-73" id="ah"/><g id="l"><use transform="matrix(0.03765432098765432,0,0,0.03765432098765432,0,0)" xlink:href="#Z"/><use transform="matrix(0.03765432098765432,0,0,0.03765432098765432,11.258641975308642,0)" xlink:href="#N"/><use transform="matrix(0.03765432098765432,0,0,0.03765432098765432,18.789506172839506,0)" xlink:href="#ah"/><use transform="matrix(0.03765432098765432,0,0,0.03765432098765432,26.32037037037037,0)" xlink:href="#M"/><use transform="matrix(0.03765432098765432,0,0,0.03765432098765432,29.295061728395062,0)" xlink:href="#R"/><use transform="matrix(0.03765432098765432,0,0,0.03765432098765432,33.06049382716049,0)" xlink:href="#X"/><use transform="matrix(0.03765432098765432,0,0,0.03765432098765432,39.83827160493827,0)" xlink:href="#Z"/><use transform="matrix(0.03765432098765432,0,0,0.03765432098765432,51.096913580246905,0)" xlink:href="#H"/><use transform="matrix(0.03765432098765432,0,0,0.03765432098765432,58.62777777777778,0)" xlink:href="#J"/><use transform="matrix(0.03765432098765432,0,0,0.03765432098765432,66.15864197530864,0)" xlink:href="#S"/><use transform="matrix(0.03765432098765432,0,0,0.03765432098765432,73.6895061728395,0)" xlink:href="#af"/><use transform="matrix(0.03765432098765432,0,0,0.03765432098765432,78.17037037037036,0)" xlink:href="#ag"/></g><g id="m"><use transform="matrix(0.05,0,0,0.05,0,0)" xlink:href="#ah"/><use transform="matrix(0.05,0,0,0.05,10,0)" xlink:href="#H"/><use transform="matrix(0.05,0,0,0.05,20,0)" xlink:href="#U"/><use transform="matrix(0.05,0,0,0.05,29,0)" xlink:href="#I"/></g><path fill="#333" d="M18-100v-36l175-74v27L42-118l151 64v27" id="ai"/><path fill="#333" d="M115-194c53 0 69 39 70 98 0 66-23 100-70 100C84 3 66-7 56-30L54 0H23l1-261h32v101c10-23 28-34 59-34zm-8 174c40 0 45-34 45-75 0-40-5-75-45-74-42 0-51 32-51 76 0 43 10 73 51 73" id="aj"/><path fill="#333" d="M18-27v-27l151-64-151-65v-27l175 74v36" id="ak"/><g id="n"><use transform="matrix(0.05,0,0,0.05,0,0)" xlink:href="#ai"/><use transform="matrix(0.05,0,0,0.05,10.5,0)" xlink:href="#ai"/><use transform="matrix(0.05,0,0,0.05,21,0)" xlink:href="#ah"/><use transform="matrix(0.05,0,0,0.05,31,0)" xlink:href="#L"/><use transform="matrix(0.05,0,0,0.05,41,0)" xlink:href="#K"/><use transform="matrix(0.05,0,0,0.05,46,0)" xlink:href="#L"/><use transform="matrix(0.05,0,0,0.05,56,0)" xlink:href="#aj"/><use transform="matrix(0.05,0,0,0.05,66,0)" xlink:href="#L"/><use transform="matrix(0.05,0,0,0.05,76,0)" xlink:href="#I"/><use transform="matrix(0.05,0,0,0.05,85,0)" xlink:href="#H"/><use transform="matrix(0.05,0,0,0.05,95,0)" xlink:href="#ak"/><use transform="matrix(0.05,0,0,0.05,105.5,0)" xlink:href="#ak"/></g><path fill="#333" d="M143 4C61 4 22-44 18-125c-5-107 100-154 193-111 17 8 29 25 37 43l-32 9c-13-25-37-40-76-40-61 0-88 39-88 99 0 61 29 100 91 101 35 0 62-11 79-27v-45h-74v-28h105v86C228-13 192 4 143 4" id="al"/><path fill="#333" d="M127-220V0H93v-220H8v-28h204v28h-85" id="am"/><g id="o"><use transform="matrix(0.03765432098765432,0,0,0.03765432098765432,0,0)" xlink:href="#al"/><use transform="matrix(0.03765432098765432,0,0,0.03765432098765432,10.543209876543209,0)" xlink:href="#H"/><use transform="matrix(0.03765432098765432,0,0,0.03765432098765432,18.074074074074073,0)" xlink:href="#K"/><use transform="matrix(0.03765432098765432,0,0,0.03765432098765432,21.83950617283951,0)" xlink:href="#am"/><use transform="matrix(0.03765432098765432,0,0,0.03765432098765432,29.596296296296295,0)" xlink:href="#M"/><use transform="matrix(0.03765432098765432,0,0,0.03765432098765432,32.57098765432099,0)" xlink:href="#P"/><use transform="matrix(0.03765432098765432,0,0,0.03765432098765432,43.82962962962963,0)" xlink:href="#H"/><use transform="matrix(0.03765432098765432,0,0,0.03765432098765432,51.3604938271605,0)" xlink:href="#al"/><use transform="matrix(0.03765432098765432,0,0,0.03765432098765432,61.903703703703705,0)" xlink:href="#G"/><use transform="matrix(0.03765432098765432,0,0,0.03765432098765432,66.38456790123458,0)" xlink:href="#L"/><use transform="matrix(0.03765432098765432,0,0,0.03765432098765432,73.91543209876544,0)" xlink:href="#ah"/><use transform="matrix(0.03765432098765432,0,0,0.03765432098765432,81.44629629629628,0)" xlink:href="#S"/><use transform="matrix(0.03765432098765432,0,0,0.03765432098765432,88.97716049382716,0)" xlink:href="#L"/><use transform="matrix(0.03765432098765432,0,0,0.03765432098765432,96.50802469135802,0)" xlink:href="#K"/><use transform="matrix(0.03765432098765432,0,0,0.03765432098765432,100.27345679012345,0)" xlink:href="#M"/><use transform="matrix(0.03765432098765432,0,0,0.03765432098765432,103.24814814814813,0)" xlink:href="#N"/><use transform="matrix(0.03765432098765432,0,0,0.03765432098765432,110.77901234567898,0)" xlink:href="#J"/><use transform="matrix(0.03765432098765432,0,0,0.03765432098765432,118.30987654320985,0)" xlink:href="#af"/><use transform="matrix(0.03765432098765432,0,0,0.03765432098765432,122.79074074074072,0)" xlink:href="#ag"/></g><path fill="#333" d="M24 0v-261h32V0H24" id="an"/><g id="p"><use transform="matrix(0.03765432098765432,0,0,0.03765432098765432,0,0)" xlink:href="#Z"/><use transform="matrix(0.03765432098765432,0,0,0.03765432098765432,11.258641975308642,0)" xlink:href="#N"/><use transform="matrix(0.03765432098765432,0,0,0.03765432098765432,18.789506172839506,0)" xlink:href="#ah"/><use transform="matrix(0.03765432098765432,0,0,0.03765432098765432,26.32037037037037,0)" xlink:href="#M"/><use transform="matrix(0.03765432098765432,0,0,0.03765432098765432,29.295061728395062,0)" xlink:href="#R"/><use transform="matrix(0.03765432098765432,0,0,0.03765432098765432,33.06049382716049,0)" xlink:href="#X"/><use transform="matrix(0.03765432098765432,0,0,0.03765432098765432,39.83827160493827,0)" xlink:href="#Y"/><use transform="matrix(0.03765432098765432,0,0,0.03765432098765432,48.875308641975316,0)" xlink:href="#P"/><use transform="matrix(0.03765432098765432,0,0,0.03765432098765432,60.13395061728395,0)" xlink:href="#W"/><use transform="matrix(0.03765432098765432,0,0,0.03765432098765432,67.66481481481482,0)" xlink:href="#an"/><use transform="matrix(0.03765432098765432,0,0,0.03765432098765432,70.6395061728395,0)" xlink:href="#N"/><use transform="matrix(0.03765432098765432,0,0,0.03765432098765432,78.17037037037036,0)" xlink:href="#X"/><use transform="matrix(0.03765432098765432,0,0,0.03765432098765432,84.94814814814814,0)" xlink:href="#H"/><use transform="matrix(0.03765432098765432,0,0,0.03765432098765432,92.47901234567901,0)" xlink:href="#ah"/><use transform="matrix(0.03765432098765432,0,0,0.03765432098765432,100.00987654320986,0)" xlink:href="#ac"/><use transform="matrix(0.03765432098765432,0,0,0.03765432098765432,109.04691358024688,0)" xlink:href="#K"/><use transform="matrix(0.03765432098765432,0,0,0.03765432098765432,112.81234567901232,0)" xlink:href="#L"/><use transform="matrix(0.03765432098765432,0,0,0.03765432098765432,120.34320987654318,0)" xlink:href="#K"/><use transform="matrix(0.03765432098765432,0,0,0.03765432098765432,124.10864197530861,0)" xlink:href="#S"/><use transform="matrix(0.03765432098765432,0,0,0.03765432098765432,131.63950617283948,0)" xlink:href="#I"/><use transform="matrix(0.03765432098765432,0,0,0.03765432098765432,138.41728395061725,0)" xlink:href="#af"/><use transform="matrix(0.03765432098765432,0,0,0.03765432098765432,142.89814814814812,0)" xlink:href="#ag"/></g><path fill="#333" d="M205 0l-28-72H64L36 0H1l101-248h38L239 0h-34zm-38-99l-47-123c-12 45-31 82-46 123h93" id="ao"/><g id="q"><use transform="matrix(0.03765432098765432,0,0,0.03765432098765432,0,0)" xlink:href="#ao"/><use transform="matrix(0.03765432098765432,0,0,0.03765432098765432,9.037037037037036,0)" xlink:href="#ah"/><use transform="matrix(0.03765432098765432,0,0,0.03765432098765432,16.5679012345679,0)" xlink:href="#ah"/><use transform="matrix(0.03765432098765432,0,0,0.03765432098765432,24.098765432098762,0)" xlink:href="#ao"/><use transform="matrix(0.03765432098765432,0,0,0.03765432098765432,33.1358024691358,0)" xlink:href="#O"/><use transform="matrix(0.03765432098765432,0,0,0.03765432098765432,42.88827160493827,0)" xlink:href="#H"/><use transform="matrix(0.03765432098765432,0,0,0.03765432098765432,50.41913580246913,0)" xlink:href="#U"/><use transform="matrix(0.03765432098765432,0,0,0.03765432098765432,57.19691358024691,0)" xlink:href="#af"/><use transform="matrix(0.03765432098765432,0,0,0.03765432098765432,61.67777777777777,0)" xlink:href="#ag"/></g><g id="r"><use transform="matrix(0.03765432098765432,0,0,0.03765432098765432,0,0)" xlink:href="#O"/><use transform="matrix(0.03765432098765432,0,0,0.03765432098765432,9.752469135802468,0)" xlink:href="#H"/><use transform="matrix(0.03765432098765432,0,0,0.03765432098765432,17.28333333333333,0)" xlink:href="#an"/><use transform="matrix(0.03765432098765432,0,0,0.03765432098765432,20.258024691358024,0)" xlink:href="#H"/><use transform="matrix(0.03765432098765432,0,0,0.03765432098765432,27.788888888888888,0)" xlink:href="#K"/><use transform="matrix(0.03765432098765432,0,0,0.03765432098765432,31.55432098765432,0)" xlink:href="#H"/><use transform="matrix(0.03765432098765432,0,0,0.03765432098765432,39.08518518518518,0)" xlink:href="#ao"/><use transform="matrix(0.03765432098765432,0,0,0.03765432098765432,48.12222222222222,0)" xlink:href="#O"/><use transform="matrix(0.03765432098765432,0,0,0.03765432098765432,57.87469135802469,0)" xlink:href="#H"/><use transform="matrix(0.03765432098765432,0,0,0.03765432098765432,65.40555555555555,0)" xlink:href="#U"/><use transform="matrix(0.03765432098765432,0,0,0.03765432098765432,72.18333333333332,0)" xlink:href="#af"/><use transform="matrix(0.03765432098765432,0,0,0.03765432098765432,76.66419753086419,0)" xlink:href="#ag"/></g><g id="s"><use transform="matrix(0.03765432098765432,0,0,0.03765432098765432,0,0)" xlink:href="#ac"/><use transform="matrix(0.03765432098765432,0,0,0.03765432098765432,9.037037037037036,0)" xlink:href="#H"/><use transform="matrix(0.03765432098765432,0,0,0.03765432098765432,16.5679012345679,0)" xlink:href="#L"/><use transform="matrix(0.03765432098765432,0,0,0.03765432098765432,24.098765432098762,0)" xlink:href="#G"/><use transform="matrix(0.03765432098765432,0,0,0.03765432098765432,28.579629629629625,0)" xlink:href="#T"/><use transform="matrix(0.03765432098765432,0,0,0.03765432098765432,35.3574074074074,0)" xlink:href="#ad"/><use transform="matrix(0.03765432098765432,0,0,0.03765432098765432,42.88827160493827,0)" xlink:href="#O"/><use transform="matrix(0.03765432098765432,0,0,0.03765432098765432,52.64074074074074,0)" xlink:href="#H"/><use transform="matrix(0.03765432098765432,0,0,0.03765432098765432,60.1716049382716,0)" xlink:href="#U"/><use transform="matrix(0.03765432098765432,0,0,0.03765432098765432,66.94938271604937,0)" xlink:href="#af"/><use transform="matrix(0.03765432098765432,0,0,0.03765432098765432,71.43024691358023,0)" xlink:href="#ag"/></g><g id="t"><use transform="matrix(0.03765432098765432,0,0,0.03765432098765432,0,0)" xlink:href="#Y"/><use transform="matrix(0.03765432098765432,0,0,0.03765432098765432,9.037037037037036,0)" xlink:href="#P"/><use transform="matrix(0.03765432098765432,0,0,0.03765432098765432,20.29567901234568,0)" xlink:href="#W"/><use transform="matrix(0.03765432098765432,0,0,0.03765432098765432,27.826543209876544,0)" xlink:href="#an"/><use transform="matrix(0.03765432098765432,0,0,0.03765432098765432,30.801234567901236,0)" xlink:href="#N"/><use transform="matrix(0.03765432098765432,0,0,0.03765432098765432,38.3320987654321,0)" xlink:href="#X"/><use transform="matrix(0.03765432098765432,0,0,0.03765432098765432,45.10987654320988,0)" xlink:href="#H"/><use transform="matrix(0.03765432098765432,0,0,0.03765432098765432,52.64074074074074,0)" xlink:href="#ah"/><use transform="matrix(0.03765432098765432,0,0,0.03765432098765432,60.1716049382716,0)" xlink:href="#ac"/><use transform="matrix(0.03765432098765432,0,0,0.03765432098765432,69.20864197530864,0)" xlink:href="#K"/><use transform="matrix(0.03765432098765432,0,0,0.03765432098765432,72.97407407407407,0)" xlink:href="#L"/><use transform="matrix(0.03765432098765432,0,0,0.03765432098765432,80.50493827160493,0)" xlink:href="#K"/><use transform="matrix(0.03765432098765432,0,0,0.03765432098765432,84.27037037037036,0)" xlink:href="#S"/><use transform="matrix(0.03765432098765432,0,0,0.03765432098765432,91.80123456790123,0)" xlink:href="#I"/><use transform="matrix(0.03765432098765432,0,0,0.03765432098765432,98.57901234567899,0)" xlink:href="#Z"/><use transform="matrix(0.03765432098765432,0,0,0.03765432098765432,109.83765432098764,0)" xlink:href="#N"/><use transform="matrix(0.03765432098765432,0,0,0.03765432098765432,117.36851851851851,0)" xlink:href="#ah"/><use transform="matrix(0.03765432098765432,0,0,0.03765432098765432,124.89938271604936,0)" xlink:href="#M"/><use transform="matrix(0.03765432098765432,0,0,0.03765432098765432,127.87407407407404,0)" xlink:href="#R"/><use transform="matrix(0.03765432098765432,0,0,0.03765432098765432,131.63950617283948,0)" xlink:href="#M"/><use transform="matrix(0.03765432098765432,0,0,0.03765432098765432,134.61419753086417,0)" xlink:href="#H"/><use transform="matrix(0.03765432098765432,0,0,0.03765432098765432,142.14506172839504,0)" xlink:href="#G"/><use transform="matrix(0.03765432098765432,0,0,0.03765432098765432,146.6259259259259,0)" xlink:href="#af"/><use transform="matrix(0.03765432098765432,0,0,0.03765432098765432,151.1067901234568,0)" xlink:href="#ag"/></g></defs></g></svg>