<svg xmlns="http://www.w3.org/2000/svg" xmlns:xlink="http://www.w3.org/1999/xlink" xmlns:lucid="lucid" width="1228" height="798"><g transform="translate(-413 -171)" lucid:page-tab-id="0_0"><path d="M0 0h2038.67v1575.33H0z" fill="#fff"/><path d="M440.17 494.5c0-4.42 3.58-8 8-8h204c4.4 0 8 3.58 8 8v228c0 4.42-3.6 8-8 8h-204c-4.42 0-8-3.58-8-8z" stroke="#666" fill="#fff"/><path d="M440.17 521.17h220m-220 129.52h220" stroke="#666" fill="none"/><use xlink:href="#a" transform="matrix(1,0,0,1,448.1666666666667,494.5) translate(57.62345679012345 12.61111111111111)"/><use xlink:href="#b" transform="matrix(1,0,0,1,452.1666666666667,529.1666666666666) translate(0 50.77777777777777)"/><use xlink:href="#c" transform="matrix(1,0,0,1,452.1666666666667,529.1666666666666) translate(26.746913580246915 50.77777777777777)"/><use xlink:href="#d" transform="matrix(1,0,0,1,452.1666666666667,529.1666666666666) translate(0 69.44444444444444)"/><use xlink:href="#e" transform="matrix(1,0,0,1,452.1666666666667,529.1666666666666) translate(43.81481481481482 69.44444444444444)"/><path d="M1026.98 295.02c0-4.4 3.58-8 8-8h204c4.42 0 8 3.6 8 8v284c0 4.42-3.58 8-8 8h-204c-4.42 0-8-3.58-8-8z" stroke="#666" fill="#fff"/><path d="M1026.98 321.7h220m-220 185.4h220" stroke="#666" fill="none"/><use xlink:href="#f" transform="matrix(1,0,0,1,1034.9781549023196,295.02426799153784) translate(68.7716049382716 12.61111111111111)"/><use xlink:href="#g" transform="matrix(1,0,0,1,1038.9781549023196,329.6909346582045) translate(0 41.44444444444443)"/><use xlink:href="#c" transform="matrix(1,0,0,1,1038.9781549023196,329.6909346582045) translate(30.679012345679013 41.44444444444443)"/><use xlink:href="#h" transform="matrix(1,0,0,1,1038.9781549023196,329.6909346582045) translate(0 60.1111111111111)"/><use xlink:href="#i" transform="matrix(1,0,0,1,1038.9781549023196,329.6909346582045) translate(89.2283950617284 60.1111111111111)"/><use xlink:href="#j" transform="matrix(1,0,0,1,1038.9781549023196,329.6909346582045) translate(0 78.77777777777777)"/><use xlink:href="#i" transform="matrix(1,0,0,1,1038.9781549023196,329.6909346582045) translate(88.49382716049384 78.77777777777777)"/><use xlink:href="#k" transform="matrix(1,0,0,1,1038.9781549023196,329.6909346582045) translate(0 97.44444444444444)"/><use xlink:href="#l" transform="matrix(1,0,0,1,1038.9781549023196,329.6909346582045) translate(127.3395061728395 97.44444444444444)"/><use xlink:href="#m" transform="matrix(1,0,0,1,1038.9781549023196,329.6909346582045) translate(0 116.11111111111111)"/><use xlink:href="#n" transform="matrix(1,0,0,1,1038.9781549023196,329.6909346582045) translate(130.83950617283952 116.11111111111111)"/><use xlink:href="#o" transform="matrix(1,0,0,1,1038.9781549023196,329.6909346582045) translate(0 134.7777777777778)"/><use xlink:href="#p" transform="matrix(1,0,0,1,1038.9781549023196,329.6909346582045) translate(121.33333333333334 134.7777777777778)"/><use xlink:href="#q" transform="matrix(1,0,0,1,1038.9781549023196,515.1007707237783) translate(0 35.611111111111114)"/><path d="M1390 296.02c0-4.4 3.58-8 8-8h204c4.42 0 8 3.6 8 8v283c0 4.42-3.58 8-8 8h-204c-4.42 0-8-3.58-8-8z" stroke="#666" fill="#fff"/><path d="M1390 322.7h220m-220 178.63h220" stroke="#666" fill="none"/><use xlink:href="#r" transform="matrix(1,0,0,1,1398.0000000000002,296.0242679915378) translate(61.44753086419752 12.61111111111111)"/><use xlink:href="#b" transform="matrix(1,0,0,1,1402.0000000000002,330.69093465820447) translate(0 37.94444444444443)"/><use xlink:href="#c" transform="matrix(1,0,0,1,1402.0000000000002,330.69093465820447) translate(26.746913580246915 37.94444444444443)"/><use xlink:href="#s" transform="matrix(1,0,0,1,1402.0000000000002,330.69093465820447) translate(0 56.6111111111111)"/><use xlink:href="#t" transform="matrix(1,0,0,1,1402.0000000000002,330.69093465820447) translate(101.41358024691358 56.6111111111111)"/><use xlink:href="#u" transform="matrix(1,0,0,1,1402.0000000000002,330.69093465820447) translate(0 75.27777777777777)"/><use xlink:href="#v" transform="matrix(1,0,0,1,1402.0000000000002,330.69093465820447) translate(86.76543209876544 75.27777777777777)"/><use xlink:href="#w" transform="matrix(1,0,0,1,1402.0000000000002,330.69093465820447) translate(0 93.94444444444444)"/><use xlink:href="#x" transform="matrix(1,0,0,1,1402.0000000000002,330.69093465820447) translate(129.97530864197532 93.94444444444444)"/><use xlink:href="#y" transform="matrix(1,0,0,1,1402.0000000000002,330.69093465820447) translate(0 112.61111111111111)"/><use xlink:href="#l" transform="matrix(1,0,0,1,1402.0000000000002,330.69093465820447) translate(118.69753086419753 112.61111111111111)"/><use xlink:href="#z" transform="matrix(1,0,0,1,1402.0000000000002,330.69093465820447) translate(0 131.2777777777778)"/><use xlink:href="#A" transform="matrix(1,0,0,1,1402.0000000000002,330.69093465820447) translate(133.30246913580248 131.2777777777778)"/><use xlink:href="#B" transform="matrix(1,0,0,1,1402.0000000000002,509.3347996169189) translate(0 38.111111111111114)"/><path d="M661.17 608.5h314.5c4.4 0 8-3.58 8-8V445.02c0-4.4 3.58-8 8-8h34.3" stroke="#666" fill="none"/><path d="M661.18 609h-.5v-1h.5zM1026.48 437.52h-.5v-1h.5z" fill="#666"/><use xlink:href="#C" transform="matrix(1,0,0,1,661.0000000000001,612.4999999999999) translate(0 12.444444444444446)"/><use xlink:href="#D" transform="matrix(1,0,0,1,1018.1571672479986,414.35760132487115) translate(0 12.444444444444446)"/><path d="M1389 437.52h-70.26c-.14 0-.25-.1-.25-.25 0-.13-.12-.25-.26-.25h-70.26" stroke="#666" fill="none"/><path d="M1389.5 438.02h-.5v-1h.5zM1248 437.52h-.52v-1h.5z" fill="#666"/><use xlink:href="#C" transform="matrix(1,0,0,1,1365.8333333333333,414.8576013248711) translate(0 12.444444444444446)"/><use xlink:href="#D" transform="matrix(1,0,0,1,1247.1571672479986,441.02426799153784) translate(0 12.444444444444446)"/><path d="M671.83 216.5c0-4.42 3.6-8 8-8h204c4.42 0 8 3.58 8 8v222c0 4.42-3.58 8-8 8h-204c-4.4 0-8-3.58-8-8z" stroke="#666" fill="#fff"/><path d="M671.83 267.7h220" stroke="#666" fill="none"/><use xlink:href="#E" transform="matrix(1,0,0,1,679.8333333333333,216.5) translate(43.574999999999996 14.799999999999999)"/><use xlink:href="#F" transform="matrix(1,0,0,1,679.8333333333333,216.5) translate(36.14999999999999 36.4)"/><g><use xlink:href="#G" transform="matrix(1,0,0,1,683.8333333333333,275.7) translate(0 48.062962962962956)"/><use xlink:href="#H" transform="matrix(1,0,0,1,683.8333333333333,275.7) translate(59.475514403292195 48.062962962962956)"/><use xlink:href="#I" transform="matrix(1,0,0,1,683.8333333333333,275.7) translate(0 66.57407407407408)"/><use xlink:href="#J" transform="matrix(1,0,0,1,683.8333333333333,275.7) translate(73.27314814814814 66.57407407407408)"/><use xlink:href="#K" transform="matrix(1,0,0,1,683.8333333333333,275.7) translate(0 85.08518518518518)"/><use xlink:href="#H" transform="matrix(1,0,0,1,683.8333333333333,275.7) translate(63.76049382716051 85.08518518518518)"/><use xlink:href="#L" transform="matrix(1,0,0,1,683.8333333333333,275.7) translate(0 103.5962962962963)"/><use xlink:href="#H" transform="matrix(1,0,0,1,683.8333333333333,275.7) translate(44.09243827160494 103.5962962962963)"/><use xlink:href="#M" transform="matrix(1,0,0,1,683.8333333333333,275.7) translate(0 122.10740740740741)"/><use xlink:href="#N" transform="matrix(1,0,0,1,683.8333333333333,275.7) translate(79.10072016460906 122.10740740740741)"/><use xlink:href="#O" transform="matrix(1,0,0,1,683.8333333333333,275.7) translate(104.72489711934158 122.10740740740741)"/></g><path d="M1025.98 327.5h-5.55m-5.55 0h-11.1m-5.54 0h-11.1m-5.54 0h-11.1m-5.55 0H954.5m-4.9 0h-9.78m-4.9 0h-9.8m-4.9 0h-4.88" stroke="#666" fill="none"/><path d="M1026.48 328h-.5v-1h.5z" fill="#666"/><path d="M893.32 327.5l21.52-12.73v25.46zM845.17 684.96c0-4.42 3.58-8 8-8h204c4.4 0 8 3.58 8 8v228c0 4.42-3.6 8-8 8h-204c-4.42 0-8-3.58-8-8z" stroke="#666" fill="#fff"/><path d="M845.17 711.63h220m-220 129.4h220" stroke="#666" fill="none"/><g><use xlink:href="#P" transform="matrix(1,0,0,1,853.1666666666667,684.9602593877385) translate(49.34876543209877 12.61111111111111)"/></g><g><use xlink:href="#g" transform="matrix(1,0,0,1,857.1666666666667,719.6269260544051) translate(0 41.44444444444444)"/><use xlink:href="#c" transform="matrix(1,0,0,1,857.1666666666667,719.6269260544051) translate(30.679012345679013 41.44444444444444)"/><use xlink:href="#Q" transform="matrix(1,0,0,1,857.1666666666667,719.6269260544051) translate(0 60.111111111111114)"/><use xlink:href="#i" transform="matrix(1,0,0,1,857.1666666666667,719.6269260544051) translate(59.111111111111114 60.111111111111114)"/><use xlink:href="#R" transform="matrix(1,0,0,1,857.1666666666667,719.6269260544051) translate(0 78.77777777777779)"/><use xlink:href="#e" transform="matrix(1,0,0,1,857.1666666666667,719.6269260544051) translate(76.43827160493828 78.77777777777779)"/></g><g><use xlink:href="#S" transform="matrix(1,0,0,1,857.1666666666667,849.0367621199789) translate(0 35.611111111111114)"/><use xlink:href="#T" transform="matrix(1,0,0,1,857.1666666666667,849.0367621199789) translate(81.53703703703704 35.611111111111114)"/></g><path d="M661.17 677.2h83.5c4.4 0 8 3.6 8 8v105.76c0 4.42 3.58 8 8 8h83.5" stroke="#666" fill="none"/><path d="M661.18 677.7h-.5v-1h.5zM844.67 799.46h-.52v-1h.52z" fill="#666"/><g><use xlink:href="#C" transform="matrix(1,0,0,1,661.0000000000001,681.2131523868449) translate(0 12.444444444444446)"/></g><g><use xlink:href="#D" transform="matrix(1,0,0,1,836.3456790123457,776.2935927210718) translate(0 12.444444444444446)"/></g><path d="M1227.83 666.88c0-4.42 3.6-8 8-8h204c4.42 0 8 3.58 8 8v265c0 4.42-3.58 8-8 8h-204c-4.4 0-8-3.58-8-8z" stroke="#666" fill="#fff"/><path d="M1227.83 693.54h220m-220 148.2h220" stroke="#666" fill="none"/><g><use xlink:href="#U" transform="matrix(1,0,0,1,1235.8333333333335,666.877173334326) translate(61.858024691358025 12.61111111111111)"/></g><g><use xlink:href="#V" transform="matrix(1,0,0,1,1239.8333333333335,701.5438400009926) translate(0 50.94444444444444)"/><use xlink:href="#c" transform="matrix(1,0,0,1,1239.8333333333335,701.5438400009926) translate(26.358024691358025 50.94444444444444)"/><use xlink:href="#W" transform="matrix(1,0,0,1,1239.8333333333335,701.5438400009926) translate(0 69.61111111111111)"/><use xlink:href="#X" transform="matrix(1,0,0,1,1239.8333333333335,701.5438400009926) translate(60.839506172839506 69.61111111111111)"/><use xlink:href="#Y" transform="matrix(1,0,0,1,1239.8333333333335,701.5438400009926) translate(0 88.27777777777779)"/><use xlink:href="#v" transform="matrix(1,0,0,1,1239.8333333333335,701.5438400009926) translate(84.21604938271605 88.27777777777779)"/></g><g><use xlink:href="#Z" transform="matrix(1,0,0,1,1239.8333333333335,849.7290251861779) translate(0 35.27777777777777)"/><use xlink:href="#n" transform="matrix(1,0,0,1,1239.8333333333335,849.7290251861779) translate(83.26543209876543 35.27777777777777)"/><use xlink:href="#aa" transform="matrix(1,0,0,1,1239.8333333333335,849.7290251861779) translate(0 53.94444444444444)"/></g><path d="M1066.17 798.96h160.66" stroke="#666" fill="none"/><path d="M1066.18 799.46h-.5v-1h.5zM1227.33 799.46h-.5v-1h.5z" fill="#666"/><g><use xlink:href="#ab" transform="matrix(1,0,0,1,1066,802.9602593877385) translate(0 12.444444444444446)"/></g><g><use xlink:href="#C" transform="matrix(1,0,0,1,1203.6666666666667,776.2935927210718) translate(0 12.444444444444446)"/></g><defs><path fill="#666" d="M238-179c0 84-86 86-175 82L45 0H11l48-248c82 0 179-12 179 69zm-34 1c0-53-64-42-116-43l-19 98c63 0 135 9 135-55" id="ac"/><path fill="#666" d="M111-194c62-3 86 47 72 106H45c-7 38 6 69 45 68 27-1 43-14 53-32l24 11C152-15 129 4 87 4 38 3 12-23 12-71c0-70 32-119 99-123zm44 81c14-66-71-72-95-28-4 8-8 17-11 28h106" id="ad"/><path fill="#666" d="M66-151c12-25 30-51 66-40l-6 26C45-176 58-65 38 0H6l36-190h30" id="ae"/><path fill="#666" d="M76-167L44 0H12l33-167H18l4-23h27c3-47 25-81 82-69l-4 24c-35-8-44 15-46 45h37l-5 23H76" id="af"/><path fill="#666" d="M50-231l6-30h32l-6 30H50zM6 0l37-190h31L37 0H6" id="ag"/><path fill="#666" d="M6 0l50-261h32L37 0H6" id="ah"/><path fill="#666" d="M62-99C39-31 123 0 170-40s38-139 58-208h34C234-144 253 4 115 4 49 4 18-43 31-112l26-136h34" id="ai"/><path fill="#666" d="M55-144c13 50 104 24 104 88C159 21 15 23 1-39l26-10c6 40 102 42 102-4-13-50-104-23-104-87 0-71 143-71 148-8l-29 4c-5-35-85-37-89 0" id="aj"/><path fill="#666" d="M67 3c-93-2-31-127-26-193h32L48-50c-3 39 53 32 70 12 30-34 30-101 43-152h32L157 0h-30c1-10 6-24 4-33-14 20-29 37-64 36" id="ak"/><path fill="#666" d="M166-48c-4 18 1 34 23 27l-3 20c-29 8-62 0-52-35h-2C117-14 100 4 64 4 31 4 9-16 9-49c0-68 71-67 138-67 10-26 0-56-31-54-26 1-42 9-47 31l-32-5c8-67 160-71 144 15-5 28-9 54-15 81zM43-50c3 52 80 24 89-6 7-12 7-24 11-38-47 1-103-4-100 44zm52-161c10-23 31-35 45-54h38l-1 5-66 49H95" id="al"/><path fill="#666" d="M30-147c31-64 166-65 159 27C183-49 158 1 86 4 9 8 1-88 30-147zM88-20c53 0 68-48 68-100 0-31-11-51-44-50-52 1-68 46-68 97 0 32 13 53 44 53" id="am"/><g id="a"><use transform="matrix(0.04320987654320988,0,0,0.04320987654320988,0,0)" xlink:href="#ac"/><use transform="matrix(0.04320987654320988,0,0,0.04320987654320988,10.370370370370372,0)" xlink:href="#ad"/><use transform="matrix(0.04320987654320988,0,0,0.04320987654320988,19.01234567901235,0)" xlink:href="#ae"/><use transform="matrix(0.04320987654320988,0,0,0.04320987654320988,24.154320987654323,0)" xlink:href="#af"/><use transform="matrix(0.04320987654320988,0,0,0.04320987654320988,28.47530864197531,0)" xlink:href="#ag"/><use transform="matrix(0.04320987654320988,0,0,0.04320987654320988,31.888888888888893,0)" xlink:href="#ah"/><use transform="matrix(0.04320987654320988,0,0,0.04320987654320988,35.302469135802475,0)" xlink:href="#ai"/><use transform="matrix(0.04320987654320988,0,0,0.04320987654320988,46.49382716049383,0)" xlink:href="#aj"/><use transform="matrix(0.04320987654320988,0,0,0.04320987654320988,54.27160493827161,0)" xlink:href="#ak"/><use transform="matrix(0.04320987654320988,0,0,0.04320987654320988,62.91358024691359,0)" xlink:href="#al"/><use transform="matrix(0.04320987654320988,0,0,0.04320987654320988,71.55555555555557,0)" xlink:href="#ae"/><use transform="matrix(0.04320987654320988,0,0,0.04320987654320988,76.69753086419755,0)" xlink:href="#ag"/><use transform="matrix(0.04320987654320988,0,0,0.04320987654320988,80.11111111111113,0)" xlink:href="#am"/></g><path fill="#666" d="M18-82l6-28h88l-6 28H18" id="an"/><path fill="#666" d="M14 0l48-248h34L48 0H14" id="ao"/><path fill="#666" d="M133-28C103 26-5 8 13-77c13-62 24-115 90-117 29-1 46 15 56 35l19-102h32L160 0h-30zM45-64c-2 27 10 43 35 43 54-1 69-50 69-103 0-29-15-46-42-46-53-1-58 58-62 106" id="ap"/><path fill="#666" d="M44-154l7-36h35l-8 36H44zM14 0l7-36h35L49 0H14" id="aq"/><g id="b"><use transform="matrix(0.04320987654320988,0,0,0.04320987654320988,0,0)" xlink:href="#an"/><use transform="matrix(0.04320987654320988,0,0,0.04320987654320988,5.1419753086419755,0)" xlink:href="#ao"/><use transform="matrix(0.04320987654320988,0,0,0.04320987654320988,9.462962962962964,0)" xlink:href="#ap"/><use transform="matrix(0.04320987654320988,0,0,0.04320987654320988,18.10493827160494,0)" xlink:href="#aq"/></g><path fill="#666" d="M52-101C46-14 166-7 216-51l9-45h-74l6-28h105l-18 87C217-12 181 4 130 4 60 4 18-31 18-101c0-106 78-167 188-146 30 6 48 27 59 54l-34 9c-10-26-31-41-67-40-75 1-107 50-112 123" id="ar"/><g id="c"><use transform="matrix(0.04320987654320988,0,0,0.04320987654320988,0,0)" xlink:href="#ar"/><use transform="matrix(0.04320987654320988,0,0,0.04320987654320988,12.098765432098766,0)" xlink:href="#ak"/><use transform="matrix(0.04320987654320988,0,0,0.04320987654320988,20.74074074074074,0)" xlink:href="#ag"/><use transform="matrix(0.04320987654320988,0,0,0.04320987654320988,24.154320987654323,0)" xlink:href="#ap"/></g><path fill="#666" d="M151-220L108 0H75l42-220H32l6-28h203l-5 28h-85" id="as"/><path fill="#666" d="M67-162c32-53 139-36 121 50C175-51 163 2 97 4 68 4 52-11 42-31 38 6 28 39 22 75H-9l50-265h29c-1 10 0 20-3 28zm89 36c0-26-10-43-35-43-54 0-67 50-69 103-1 29 14 45 42 46 53 0 62-58 62-106" id="at"/><g id="d"><use transform="matrix(0.04320987654320988,0,0,0.04320987654320988,0,0)" xlink:href="#an"/><use transform="matrix(0.04320987654320988,0,0,0.04320987654320988,5.1419753086419755,0)" xlink:href="#as"/><use transform="matrix(0.04320987654320988,0,0,0.04320987654320988,14.47530864197531,0)" xlink:href="#ag"/><use transform="matrix(0.04320987654320988,0,0,0.04320987654320988,17.888888888888893,0)" xlink:href="#at"/><use transform="matrix(0.04320987654320988,0,0,0.04320987654320988,26.530864197530867,0)" xlink:href="#am"/><use transform="matrix(0.04320987654320988,0,0,0.04320987654320988,35.17283950617284,0)" xlink:href="#aq"/></g><path fill="#666" d="M51-54c-9 22 5 41 31 30L79-1C43 14 10-4 19-52l22-115H19l5-23h22l19-43h21l-9 43h35l-4 23H73" id="au"/><path fill="#666" d="M67-158c22-48 132-52 116 29L158 0h-32l25-140c3-38-53-32-70-12C52-117 51-52 38 0H6l36-190h30" id="av"/><path fill="#666" d="M103-194c29 0 47 14 56 36 2-11 5-23 8-32h30L160-5C157 61 82 97 21 62 9 55 4 45 1 30l28-7c7 42 83 31 92-3 4-16 9-38 13-55-13 20-29 36-62 36-40 0-60-25-60-64 0-71 23-131 91-131zm4 24c-53 0-58 54-61 104-2 27 10 44 36 44 49 0 65-50 67-102 1-29-15-46-42-46" id="aw"/><g id="e"><use transform="matrix(0.04320987654320988,0,0,0.04320987654320988,0,0)" xlink:href="#aj"/><use transform="matrix(0.04320987654320988,0,0,0.04320987654320988,7.777777777777779,0)" xlink:href="#au"/><use transform="matrix(0.04320987654320988,0,0,0.04320987654320988,12.098765432098766,0)" xlink:href="#ae"/><use transform="matrix(0.04320987654320988,0,0,0.04320987654320988,17.24074074074074,0)" xlink:href="#ag"/><use transform="matrix(0.04320987654320988,0,0,0.04320987654320988,20.654320987654323,0)" xlink:href="#av"/><use transform="matrix(0.04320987654320988,0,0,0.04320987654320988,29.296296296296298,0)" xlink:href="#aw"/></g><path fill="#666" d="M248-139C247-14 144 9 11 0l48-248c105-6 190 8 189 109zm-34 0c1-70-52-87-126-82L50-27c98 7 163-21 164-112" id="ax"/><path fill="#666" d="M89 0H52L20-190h33L74-25l89-165h34" id="ay"/><path fill="#666" d="M11 0l48-248h184l-5 28H87l-15 79h140l-5 27H67L50-27h158l-5 27H11" id="az"/><path fill="#666" d="M198-190L69 30C53 58 25 83-20 72c4-11-1-27 19-22 33-1 43-29 59-52L20-190h32L79-34l84-156h35" id="aA"/><g id="f"><use transform="matrix(0.04320987654320988,0,0,0.04320987654320988,0,0)" xlink:href="#ax"/><use transform="matrix(0.04320987654320988,0,0,0.04320987654320988,11.19135802469136,0)" xlink:href="#ad"/><use transform="matrix(0.04320987654320988,0,0,0.04320987654320988,19.833333333333336,0)" xlink:href="#ay"/><use transform="matrix(0.04320987654320988,0,0,0.04320987654320988,27.611111111111114,0)" xlink:href="#az"/><use transform="matrix(0.04320987654320988,0,0,0.04320987654320988,37.98148148148149,0)" xlink:href="#av"/><use transform="matrix(0.04320987654320988,0,0,0.04320987654320988,46.62345679012346,0)" xlink:href="#au"/><use transform="matrix(0.04320987654320988,0,0,0.04320987654320988,50.94444444444445,0)" xlink:href="#ag"/><use transform="matrix(0.04320987654320988,0,0,0.04320987654320988,54.35802469135803,0)" xlink:href="#au"/><use transform="matrix(0.04320987654320988,0,0,0.04320987654320988,58.67901234567902,0)" xlink:href="#aA"/></g><path fill="#666" d="M123-107v75H97v-75H23v-26h74v-75h26v75h75v26h-75" id="aB"/><g id="g"><use transform="matrix(0.04320987654320988,0,0,0.04320987654320988,0,0)" xlink:href="#aB"/><use transform="matrix(0.04320987654320988,0,0,0.04320987654320988,9.074074074074074,0)" xlink:href="#ao"/><use transform="matrix(0.04320987654320988,0,0,0.04320987654320988,13.395061728395063,0)" xlink:href="#ap"/><use transform="matrix(0.04320987654320988,0,0,0.04320987654320988,22.037037037037038,0)" xlink:href="#aq"/></g><path fill="#666" d="M87-220l-18 92h140l-5 28H64L45 0H11l48-248h178l-5 28H87" id="aC"/><path fill="#666" d="M173 0L80-213 41 0H11l48-248h37l94 214 40-214h30L212 0h-39" id="aD"/><path fill="#666" d="M165-48c-4 18 1 34 23 27l-3 20c-29 8-62 0-52-35h-2C116-14 99 4 63 4 30 4 8-16 8-49c0-68 71-67 138-67 10-26 0-56-31-54-26 1-42 9-47 31l-32-5c8-67 160-71 144 15-5 28-9 54-15 81zM42-50c3 52 80 24 89-6 7-12 7-24 11-38-47 1-103-4-100 44" id="aE"/><path fill="#666" d="M248-111c6-24 9-61-24-58-72 9-57 108-77 169h-31l26-142c3-37-50-30-64-10C52-115 50-51 37 0H6l36-190h30c-1 10-6 24-4 32 13-43 101-52 105 5 13-22 29-41 61-41 90 0 28 129 23 194h-31" id="aF"/><g id="h"><use transform="matrix(0.04320987654320988,0,0,0.04320987654320988,0,0)" xlink:href="#aB"/><use transform="matrix(0.04320987654320988,0,0,0.04320987654320988,9.074074074074074,0)" xlink:href="#aC"/><use transform="matrix(0.04320987654320988,0,0,0.04320987654320988,18.537037037037038,0)" xlink:href="#ag"/><use transform="matrix(0.04320987654320988,0,0,0.04320987654320988,21.95061728395062,0)" xlink:href="#ae"/><use transform="matrix(0.04320987654320988,0,0,0.04320987654320988,27.092592592592595,0)" xlink:href="#aj"/><use transform="matrix(0.04320987654320988,0,0,0.04320987654320988,34.870370370370374,0)" xlink:href="#au"/><use transform="matrix(0.04320987654320988,0,0,0.04320987654320988,39.19135802469136,0)" xlink:href="#aD"/><use transform="matrix(0.04320987654320988,0,0,0.04320987654320988,50.38271604938272,0)" xlink:href="#aE"/><use transform="matrix(0.04320987654320988,0,0,0.04320987654320988,59.0246913580247,0)" xlink:href="#aF"/><use transform="matrix(0.04320987654320988,0,0,0.04320987654320988,71.94444444444446,0)" xlink:href="#ad"/><use transform="matrix(0.04320987654320988,0,0,0.04320987654320988,80.58641975308643,0)" xlink:href="#aq"/></g><g id="i"><use transform="matrix(0.04320987654320988,0,0,0.04320987654320988,0,0)" xlink:href="#aj"/><use transform="matrix(0.04320987654320988,0,0,0.04320987654320988,7.777777777777779,0)" xlink:href="#au"/><use transform="matrix(0.04320987654320988,0,0,0.04320987654320988,12.098765432098766,0)" xlink:href="#ae"/><use transform="matrix(0.04320987654320988,0,0,0.04320987654320988,17.24074074074074,0)" xlink:href="#ag"/><use transform="matrix(0.04320987654320988,0,0,0.04320987654320988,20.654320987654323,0)" xlink:href="#av"/><use transform="matrix(0.04320987654320988,0,0,0.04320987654320988,29.296296296296298,0)" xlink:href="#aw"/></g><path fill="#666" d="M11 0l48-248h34L50-27h125l-5 27H11" id="aG"/><g id="j"><use transform="matrix(0.04320987654320988,0,0,0.04320987654320988,0,0)" xlink:href="#aB"/><use transform="matrix(0.04320987654320988,0,0,0.04320987654320988,9.074074074074074,0)" xlink:href="#aG"/><use transform="matrix(0.04320987654320988,0,0,0.04320987654320988,17.71604938271605,0)" xlink:href="#aE"/><use transform="matrix(0.04320987654320988,0,0,0.04320987654320988,26.35802469135803,0)" xlink:href="#aj"/><use transform="matrix(0.04320987654320988,0,0,0.04320987654320988,34.135802469135804,0)" xlink:href="#au"/><use transform="matrix(0.04320987654320988,0,0,0.04320987654320988,38.45679012345679,0)" xlink:href="#aD"/><use transform="matrix(0.04320987654320988,0,0,0.04320987654320988,49.64814814814815,0)" xlink:href="#aE"/><use transform="matrix(0.04320987654320988,0,0,0.04320987654320988,58.29012345679013,0)" xlink:href="#aF"/><use transform="matrix(0.04320987654320988,0,0,0.04320987654320988,71.20987654320989,0)" xlink:href="#ad"/><use transform="matrix(0.04320987654320988,0,0,0.04320987654320988,79.85185185185186,0)" xlink:href="#aq"/></g><g id="k"><use transform="matrix(0.04320987654320988,0,0,0.04320987654320988,0,0)" xlink:href="#aB"/><use transform="matrix(0.04320987654320988,0,0,0.04320987654320988,9.074074074074074,0)" xlink:href="#ar"/><use transform="matrix(0.04320987654320988,0,0,0.04320987654320988,21.172839506172842,0)" xlink:href="#ae"/><use transform="matrix(0.04320987654320988,0,0,0.04320987654320988,26.314814814814817,0)" xlink:href="#aE"/><use transform="matrix(0.04320987654320988,0,0,0.04320987654320988,34.95679012345679,0)" xlink:href="#ap"/><use transform="matrix(0.04320987654320988,0,0,0.04320987654320988,43.598765432098766,0)" xlink:href="#ak"/><use transform="matrix(0.04320987654320988,0,0,0.04320987654320988,52.24074074074073,0)" xlink:href="#aE"/><use transform="matrix(0.04320987654320988,0,0,0.04320987654320988,60.882716049382715,0)" xlink:href="#au"/><use transform="matrix(0.04320987654320988,0,0,0.04320987654320988,65.20370370370371,0)" xlink:href="#ag"/><use transform="matrix(0.04320987654320988,0,0,0.04320987654320988,68.61728395061729,0)" xlink:href="#am"/><use transform="matrix(0.04320987654320988,0,0,0.04320987654320988,77.25925925925927,0)" xlink:href="#av"/><use transform="matrix(0.04320987654320988,0,0,0.04320987654320988,85.90123456790124,0)" xlink:href="#ax"/><use transform="matrix(0.04320987654320988,0,0,0.04320987654320988,97.09259259259261,0)" xlink:href="#aE"/><use transform="matrix(0.04320987654320988,0,0,0.04320987654320988,105.73456790123458,0)" xlink:href="#au"/><use transform="matrix(0.04320987654320988,0,0,0.04320987654320988,110.05555555555554,0)" xlink:href="#ad"/><use transform="matrix(0.04320987654320988,0,0,0.04320987654320988,118.69753086419752,0)" xlink:href="#aq"/></g><g id="l"><use transform="matrix(0.04320987654320988,0,0,0.04320987654320988,0,0)" xlink:href="#ax"/><use transform="matrix(0.04320987654320988,0,0,0.04320987654320988,11.19135802469136,0)" xlink:href="#aE"/><use transform="matrix(0.04320987654320988,0,0,0.04320987654320988,19.833333333333336,0)" xlink:href="#au"/><use transform="matrix(0.04320987654320988,0,0,0.04320987654320988,24.154320987654323,0)" xlink:href="#ad"/><use transform="matrix(0.04320987654320988,0,0,0.04320987654320988,32.7962962962963,0)" xlink:href="#au"/><use transform="matrix(0.04320987654320988,0,0,0.04320987654320988,37.117283950617285,0)" xlink:href="#ag"/><use transform="matrix(0.04320987654320988,0,0,0.04320987654320988,40.53086419753087,0)" xlink:href="#aF"/><use transform="matrix(0.04320987654320988,0,0,0.04320987654320988,53.45061728395062,0)" xlink:href="#ad"/></g><path fill="#666" d="M194-120c59 52 2 134-86 124-53-6-90-18-98-63l31-7c8 30 29 43 70 43 46 0 84-17 71-62-32-43-135-20-137-98-3-89 178-90 191-16l-30 9c-8-48-127-53-127 5 0 53 81 35 115 65" id="aH"/><g id="m"><use transform="matrix(0.04320987654320988,0,0,0.04320987654320988,0,0)" xlink:href="#aB"/><use transform="matrix(0.04320987654320988,0,0,0.04320987654320988,9.074074074074074,0)" xlink:href="#az"/><use transform="matrix(0.04320987654320988,0,0,0.04320987654320988,19.444444444444446,0)" xlink:href="#aF"/><use transform="matrix(0.04320987654320988,0,0,0.04320987654320988,32.3641975308642,0)" xlink:href="#at"/><use transform="matrix(0.04320987654320988,0,0,0.04320987654320988,41.00617283950618,0)" xlink:href="#ah"/><use transform="matrix(0.04320987654320988,0,0,0.04320987654320988,44.41975308641976,0)" xlink:href="#am"/><use transform="matrix(0.04320987654320988,0,0,0.04320987654320988,53.061728395061735,0)" xlink:href="#aA"/><use transform="matrix(0.04320987654320988,0,0,0.04320987654320988,60.83950617283951,0)" xlink:href="#ad"/><use transform="matrix(0.04320987654320988,0,0,0.04320987654320988,69.4814814814815,0)" xlink:href="#ap"/><use transform="matrix(0.04320987654320988,0,0,0.04320987654320988,78.12345679012347,0)" xlink:href="#aH"/><use transform="matrix(0.04320987654320988,0,0,0.04320987654320988,88.49382716049384,0)" xlink:href="#au"/><use transform="matrix(0.04320987654320988,0,0,0.04320987654320988,92.81481481481482,0)" xlink:href="#aE"/><use transform="matrix(0.04320987654320988,0,0,0.04320987654320988,101.4567901234568,0)" xlink:href="#au"/><use transform="matrix(0.04320987654320988,0,0,0.04320987654320988,105.77777777777779,0)" xlink:href="#ak"/><use transform="matrix(0.04320987654320988,0,0,0.04320987654320988,114.41975308641976,0)" xlink:href="#aj"/><use transform="matrix(0.04320987654320988,0,0,0.04320987654320988,122.19753086419755,0)" xlink:href="#aq"/></g><path fill="#666" d="M219-77C219 17 104-2 11 0l48-248c73 2 169-15 169 57 0 38-24 54-60 60 29 5 51 21 51 54zm-26-111c0-44-62-31-105-33l-16 79c55 0 121 9 121-46zm-7 110c-1-49-69-36-119-38L50-27c61-1 137 12 136-51" id="aI"/><g id="n"><use transform="matrix(0.04320987654320988,0,0,0.04320987654320988,0,0)" xlink:href="#aI"/><use transform="matrix(0.04320987654320988,0,0,0.04320987654320988,10.370370370370372,0)" xlink:href="#am"/><use transform="matrix(0.04320987654320988,0,0,0.04320987654320988,19.01234567901235,0)" xlink:href="#am"/><use transform="matrix(0.04320987654320988,0,0,0.04320987654320988,27.654320987654323,0)" xlink:href="#ah"/></g><path fill="#666" d="M68-162c25-46 127-43 121 31C183-60 169 1 98 4 69 5 53-11 43-31L36 0H5l52-261h31zm88 36c2-27-9-43-34-43-55 0-70 51-70 103 0 29 15 45 43 46 52 0 58-58 61-106" id="aJ"/><path fill="#666" d="M67-158c15-20 31-36 64-36 94 0 33 127 27 194h-32l25-140c3-38-53-32-70-12C52-117 51-51 37 0H6l51-261h31" id="aK"/><path fill="#666" d="M187 0l-14-72H61L19 0h-37l149-248h38L221 0h-34zm-19-99l-22-123L76-99h92" id="aL"/><g id="o"><use transform="matrix(0.04320987654320988,0,0,0.04320987654320988,0,0)" xlink:href="#aB"/><use transform="matrix(0.04320987654320988,0,0,0.04320987654320988,9.074074074074074,0)" xlink:href="#ac"/><use transform="matrix(0.04320987654320988,0,0,0.04320987654320988,19.444444444444446,0)" xlink:href="#ak"/><use transform="matrix(0.04320987654320988,0,0,0.04320987654320988,28.08641975308642,0)" xlink:href="#aJ"/><use transform="matrix(0.04320987654320988,0,0,0.04320987654320988,36.7283950617284,0)" xlink:href="#ah"/><use transform="matrix(0.04320987654320988,0,0,0.04320987654320988,40.14197530864198,0)" xlink:href="#ag"/><use transform="matrix(0.04320987654320988,0,0,0.04320987654320988,43.555555555555564,0)" xlink:href="#aj"/><use transform="matrix(0.04320987654320988,0,0,0.04320987654320988,51.333333333333336,0)" xlink:href="#aK"/><use transform="matrix(0.04320987654320988,0,0,0.04320987654320988,59.97530864197532,0)" xlink:href="#ad"/><use transform="matrix(0.04320987654320988,0,0,0.04320987654320988,68.61728395061729,0)" xlink:href="#ap"/><use transform="matrix(0.04320987654320988,0,0,0.04320987654320988,77.25925925925927,0)" xlink:href="#aL"/><use transform="matrix(0.04320987654320988,0,0,0.04320987654320988,87.62962962962963,0)" xlink:href="#at"/><use transform="matrix(0.04320987654320988,0,0,0.04320987654320988,96.27160493827162,0)" xlink:href="#at"/><use transform="matrix(0.04320987654320988,0,0,0.04320987654320988,104.9135802469136,0)" xlink:href="#aj"/><use transform="matrix(0.04320987654320988,0,0,0.04320987654320988,112.69135802469137,0)" xlink:href="#aq"/></g><g id="p"><use transform="matrix(0.04320987654320988,0,0,0.04320987654320988,0,0)" xlink:href="#ag"/><use transform="matrix(0.04320987654320988,0,0,0.04320987654320988,3.4135802469135808,0)" xlink:href="#av"/><use transform="matrix(0.04320987654320988,0,0,0.04320987654320988,12.055555555555557,0)" xlink:href="#au"/></g><g id="q"><use transform="matrix(0.04320987654320988,0,0,0.04320987654320988,0,0)" xlink:href="#aB"/><use transform="matrix(0.04320987654320988,0,0,0.04320987654320988,9.074074074074074,0)" xlink:href="#aw"/><use transform="matrix(0.04320987654320988,0,0,0.04320987654320988,17.71604938271605,0)" xlink:href="#ad"/><use transform="matrix(0.04320987654320988,0,0,0.04320987654320988,26.35802469135803,0)" xlink:href="#au"/><use transform="matrix(0.04320987654320988,0,0,0.04320987654320988,30.67901234567901,0)" xlink:href="#as"/><use transform="matrix(0.04320987654320988,0,0,0.04320987654320988,40.01234567901235,0)" xlink:href="#ag"/><use transform="matrix(0.04320987654320988,0,0,0.04320987654320988,43.42592592592593,0)" xlink:href="#aF"/><use transform="matrix(0.04320987654320988,0,0,0.04320987654320988,56.345679012345684,0)" xlink:href="#ad"/><use transform="matrix(0.04320987654320988,0,0,0.04320987654320988,64.98765432098766,0)" xlink:href="#aC"/><use transform="matrix(0.04320987654320988,0,0,0.04320987654320988,74.45061728395062,0)" xlink:href="#ae"/><use transform="matrix(0.04320987654320988,0,0,0.04320987654320988,79.5925925925926,0)" xlink:href="#am"/><use transform="matrix(0.04320987654320988,0,0,0.04320987654320988,88.23456790123457,0)" xlink:href="#aF"/><use transform="matrix(0.04320987654320988,0,0,0.04320987654320988,101.15432098765433,0)" xlink:href="#ar"/><use transform="matrix(0.04320987654320988,0,0,0.04320987654320988,113.2530864197531,0)" xlink:href="#ae"/><use transform="matrix(0.04320987654320988,0,0,0.04320987654320988,118.39506172839505,0)" xlink:href="#aE"/><use transform="matrix(0.04320987654320988,0,0,0.04320987654320988,127.03703703703702,0)" xlink:href="#ap"/><use transform="matrix(0.04320987654320988,0,0,0.04320987654320988,135.679012345679,0)" xlink:href="#ak"/><use transform="matrix(0.04320987654320988,0,0,0.04320987654320988,144.320987654321,0)" xlink:href="#aE"/><use transform="matrix(0.04320987654320988,0,0,0.04320987654320988,152.96296296296296,0)" xlink:href="#au"/><use transform="matrix(0.04320987654320988,0,0,0.04320987654320988,157.28395061728395,0)" xlink:href="#ad"/></g><path fill="#666" d="M222 0l43-216c-8 16-17 34-26 49L143 0h-22L81-216 41 0H11l48-248h42l38 208 116-208h45L252 0h-30" id="aM"/><g id="r"><use transform="matrix(0.04320987654320988,0,0,0.04320987654320988,0,0)" xlink:href="#aM"/><use transform="matrix(0.04320987654320988,0,0,0.04320987654320988,12.919753086419755,0)" xlink:href="#am"/><use transform="matrix(0.04320987654320988,0,0,0.04320987654320988,21.56172839506173,0)" xlink:href="#aJ"/><use transform="matrix(0.04320987654320988,0,0,0.04320987654320988,30.203703703703713,0)" xlink:href="#ag"/><use transform="matrix(0.04320987654320988,0,0,0.04320987654320988,33.61728395061729,0)" xlink:href="#ah"/><use transform="matrix(0.04320987654320988,0,0,0.04320987654320988,37.030864197530875,0)" xlink:href="#ad"/><use transform="matrix(0.04320987654320988,0,0,0.04320987654320988,45.67283950617284,0)" xlink:href="#aL"/><use transform="matrix(0.04320987654320988,0,0,0.04320987654320988,56.04320987654322,0)" xlink:href="#at"/><use transform="matrix(0.04320987654320988,0,0,0.04320987654320988,64.6851851851852,0)" xlink:href="#at"/><use transform="matrix(0.04320987654320988,0,0,0.04320987654320988,73.32716049382718,0)" xlink:href="#aj"/></g><g id="s"><use transform="matrix(0.04320987654320988,0,0,0.04320987654320988,0,0)" xlink:href="#aB"/><use transform="matrix(0.04320987654320988,0,0,0.04320987654320988,9.074074074074074,0)" xlink:href="#ax"/><use transform="matrix(0.04320987654320988,0,0,0.04320987654320988,20.265432098765434,0)" xlink:href="#ad"/><use transform="matrix(0.04320987654320988,0,0,0.04320987654320988,28.907407407407412,0)" xlink:href="#ay"/><use transform="matrix(0.04320987654320988,0,0,0.04320987654320988,36.68518518518519,0)" xlink:href="#ad"/><use transform="matrix(0.04320987654320988,0,0,0.04320987654320988,45.327160493827165,0)" xlink:href="#ah"/><use transform="matrix(0.04320987654320988,0,0,0.04320987654320988,48.74074074074075,0)" xlink:href="#am"/><use transform="matrix(0.04320987654320988,0,0,0.04320987654320988,57.38271604938272,0)" xlink:href="#at"/><use transform="matrix(0.04320987654320988,0,0,0.04320987654320988,66.0246913580247,0)" xlink:href="#ad"/><use transform="matrix(0.04320987654320988,0,0,0.04320987654320988,74.66666666666667,0)" xlink:href="#ae"/><use transform="matrix(0.04320987654320988,0,0,0.04320987654320988,79.80864197530865,0)" xlink:href="#ao"/><use transform="matrix(0.04320987654320988,0,0,0.04320987654320988,84.12962962962963,0)" xlink:href="#ap"/><use transform="matrix(0.04320987654320988,0,0,0.04320987654320988,92.77160493827161,0)" xlink:href="#aq"/></g><g id="t"><use transform="matrix(0.04320987654320988,0,0,0.04320987654320988,0,0)" xlink:href="#ar"/><use transform="matrix(0.04320987654320988,0,0,0.04320987654320988,12.098765432098766,0)" xlink:href="#ak"/><use transform="matrix(0.04320987654320988,0,0,0.04320987654320988,20.74074074074074,0)" xlink:href="#ag"/><use transform="matrix(0.04320987654320988,0,0,0.04320987654320988,24.154320987654323,0)" xlink:href="#ap"/></g><g id="u"><use transform="matrix(0.04320987654320988,0,0,0.04320987654320988,0,0)" xlink:href="#aB"/><use transform="matrix(0.04320987654320988,0,0,0.04320987654320988,9.074074074074074,0)" xlink:href="#aL"/><use transform="matrix(0.04320987654320988,0,0,0.04320987654320988,19.444444444444446,0)" xlink:href="#at"/><use transform="matrix(0.04320987654320988,0,0,0.04320987654320988,28.08641975308642,0)" xlink:href="#at"/><use transform="matrix(0.04320987654320988,0,0,0.04320987654320988,36.7283950617284,0)" xlink:href="#aD"/><use transform="matrix(0.04320987654320988,0,0,0.04320987654320988,47.91975308641976,0)" xlink:href="#aE"/><use transform="matrix(0.04320987654320988,0,0,0.04320987654320988,56.561728395061735,0)" xlink:href="#aF"/><use transform="matrix(0.04320987654320988,0,0,0.04320987654320988,69.4814814814815,0)" xlink:href="#ad"/><use transform="matrix(0.04320987654320988,0,0,0.04320987654320988,78.12345679012347,0)" xlink:href="#aq"/></g><g id="v"><use transform="matrix(0.04320987654320988,0,0,0.04320987654320988,0,0)" xlink:href="#aj"/><use transform="matrix(0.04320987654320988,0,0,0.04320987654320988,7.777777777777779,0)" xlink:href="#au"/><use transform="matrix(0.04320987654320988,0,0,0.04320987654320988,12.098765432098766,0)" xlink:href="#ae"/><use transform="matrix(0.04320987654320988,0,0,0.04320987654320988,17.24074074074074,0)" xlink:href="#ag"/><use transform="matrix(0.04320987654320988,0,0,0.04320987654320988,20.654320987654323,0)" xlink:href="#av"/><use transform="matrix(0.04320987654320988,0,0,0.04320987654320988,29.296296296296298,0)" xlink:href="#aw"/></g><g id="w"><use transform="matrix(0.04320987654320988,0,0,0.04320987654320988,0,0)" xlink:href="#aB"/><use transform="matrix(0.04320987654320988,0,0,0.04320987654320988,9.074074074074074,0)" xlink:href="#ac"/><use transform="matrix(0.04320987654320988,0,0,0.04320987654320988,19.444444444444446,0)" xlink:href="#ak"/><use transform="matrix(0.04320987654320988,0,0,0.04320987654320988,28.08641975308642,0)" xlink:href="#aJ"/><use transform="matrix(0.04320987654320988,0,0,0.04320987654320988,36.7283950617284,0)" xlink:href="#ah"/><use transform="matrix(0.04320987654320988,0,0,0.04320987654320988,40.14197530864198,0)" xlink:href="#ag"/><use transform="matrix(0.04320987654320988,0,0,0.04320987654320988,43.555555555555564,0)" xlink:href="#aj"/><use transform="matrix(0.04320987654320988,0,0,0.04320987654320988,51.333333333333336,0)" xlink:href="#aK"/><use transform="matrix(0.04320987654320988,0,0,0.04320987654320988,59.97530864197532,0)" xlink:href="#ad"/><use transform="matrix(0.04320987654320988,0,0,0.04320987654320988,68.61728395061729,0)" xlink:href="#ap"/><use transform="matrix(0.04320987654320988,0,0,0.04320987654320988,77.25925925925927,0)" xlink:href="#aH"/><use transform="matrix(0.04320987654320988,0,0,0.04320987654320988,87.62962962962963,0)" xlink:href="#au"/><use transform="matrix(0.04320987654320988,0,0,0.04320987654320988,91.95061728395062,0)" xlink:href="#aE"/><use transform="matrix(0.04320987654320988,0,0,0.04320987654320988,100.59259259259261,0)" xlink:href="#au"/><use transform="matrix(0.04320987654320988,0,0,0.04320987654320988,104.9135802469136,0)" xlink:href="#ak"/><use transform="matrix(0.04320987654320988,0,0,0.04320987654320988,113.55555555555554,0)" xlink:href="#aj"/><use transform="matrix(0.04320987654320988,0,0,0.04320987654320988,121.33333333333334,0)" xlink:href="#aq"/></g><g id="x"><use transform="matrix(0.04320987654320988,0,0,0.04320987654320988,0,0)" xlink:href="#aI"/><use transform="matrix(0.04320987654320988,0,0,0.04320987654320988,10.370370370370372,0)" xlink:href="#am"/><use transform="matrix(0.04320987654320988,0,0,0.04320987654320988,19.01234567901235,0)" xlink:href="#am"/><use transform="matrix(0.04320987654320988,0,0,0.04320987654320988,27.654320987654323,0)" xlink:href="#ah"/></g><g id="y"><use transform="matrix(0.04320987654320988,0,0,0.04320987654320988,0,0)" xlink:href="#aB"/><use transform="matrix(0.04320987654320988,0,0,0.04320987654320988,9.074074074074074,0)" xlink:href="#ac"/><use transform="matrix(0.04320987654320988,0,0,0.04320987654320988,19.444444444444446,0)" xlink:href="#ak"/><use transform="matrix(0.04320987654320988,0,0,0.04320987654320988,28.08641975308642,0)" xlink:href="#aJ"/><use transform="matrix(0.04320987654320988,0,0,0.04320987654320988,36.7283950617284,0)" xlink:href="#ah"/><use transform="matrix(0.04320987654320988,0,0,0.04320987654320988,40.14197530864198,0)" xlink:href="#ag"/><use transform="matrix(0.04320987654320988,0,0,0.04320987654320988,43.555555555555564,0)" xlink:href="#aj"/><use transform="matrix(0.04320987654320988,0,0,0.04320987654320988,51.333333333333336,0)" xlink:href="#aK"/><use transform="matrix(0.04320987654320988,0,0,0.04320987654320988,59.97530864197532,0)" xlink:href="#ad"/><use transform="matrix(0.04320987654320988,0,0,0.04320987654320988,68.61728395061729,0)" xlink:href="#ap"/><use transform="matrix(0.04320987654320988,0,0,0.04320987654320988,77.25925925925927,0)" xlink:href="#ax"/><use transform="matrix(0.04320987654320988,0,0,0.04320987654320988,88.45061728395062,0)" xlink:href="#aE"/><use transform="matrix(0.04320987654320988,0,0,0.04320987654320988,97.09259259259261,0)" xlink:href="#au"/><use transform="matrix(0.04320987654320988,0,0,0.04320987654320988,101.4135802469136,0)" xlink:href="#ad"/><use transform="matrix(0.04320987654320988,0,0,0.04320987654320988,110.05555555555554,0)" xlink:href="#aq"/></g><path fill="#666" d="M44-68c0 29 11 47 38 47 30 0 42-19 51-41l28 9C148-21 126 4 82 4 31 4 10-29 12-85c3-77 74-140 146-93 12 8 15 23 18 40l-31 5c-1-22-13-36-36-36-52 0-65 49-65 101" id="aN"/><g id="z"><use transform="matrix(0.04320987654320988,0,0,0.04320987654320988,0,0)" xlink:href="#aB"/><use transform="matrix(0.04320987654320988,0,0,0.04320987654320988,9.074074074074074,0)" xlink:href="#aM"/><use transform="matrix(0.04320987654320988,0,0,0.04320987654320988,21.99382716049383,0)" xlink:href="#am"/><use transform="matrix(0.04320987654320988,0,0,0.04320987654320988,30.635802469135804,0)" xlink:href="#ap"/><use transform="matrix(0.04320987654320988,0,0,0.04320987654320988,39.27777777777778,0)" xlink:href="#ag"/><use transform="matrix(0.04320987654320988,0,0,0.04320987654320988,42.69135802469136,0)" xlink:href="#af"/><use transform="matrix(0.04320987654320988,0,0,0.04320987654320988,47.01234567901235,0)" xlink:href="#ag"/><use transform="matrix(0.04320987654320988,0,0,0.04320987654320988,50.42592592592593,0)" xlink:href="#aN"/><use transform="matrix(0.04320987654320988,0,0,0.04320987654320988,58.20370370370371,0)" xlink:href="#aE"/><use transform="matrix(0.04320987654320988,0,0,0.04320987654320988,66.84567901234568,0)" xlink:href="#au"/><use transform="matrix(0.04320987654320988,0,0,0.04320987654320988,71.16666666666667,0)" xlink:href="#ag"/><use transform="matrix(0.04320987654320988,0,0,0.04320987654320988,74.58024691358025,0)" xlink:href="#am"/><use transform="matrix(0.04320987654320988,0,0,0.04320987654320988,83.22222222222223,0)" xlink:href="#av"/><use transform="matrix(0.04320987654320988,0,0,0.04320987654320988,91.8641975308642,0)" xlink:href="#ax"/><use transform="matrix(0.04320987654320988,0,0,0.04320987654320988,103.05555555555557,0)" xlink:href="#aE"/><use transform="matrix(0.04320987654320988,0,0,0.04320987654320988,111.69753086419752,0)" xlink:href="#au"/><use transform="matrix(0.04320987654320988,0,0,0.04320987654320988,116.0185185185185,0)" xlink:href="#ad"/><use transform="matrix(0.04320987654320988,0,0,0.04320987654320988,124.6604938271605,0)" xlink:href="#aq"/></g><g id="A"><use transform="matrix(0.04320987654320988,0,0,0.04320987654320988,0,0)" xlink:href="#ax"/><use transform="matrix(0.04320987654320988,0,0,0.04320987654320988,11.19135802469136,0)" xlink:href="#aE"/><use transform="matrix(0.04320987654320988,0,0,0.04320987654320988,19.833333333333336,0)" xlink:href="#au"/><use transform="matrix(0.04320987654320988,0,0,0.04320987654320988,24.154320987654323,0)" xlink:href="#ad"/><use transform="matrix(0.04320987654320988,0,0,0.04320987654320988,32.7962962962963,0)" xlink:href="#au"/><use transform="matrix(0.04320987654320988,0,0,0.04320987654320988,37.117283950617285,0)" xlink:href="#ag"/><use transform="matrix(0.04320987654320988,0,0,0.04320987654320988,40.53086419753087,0)" xlink:href="#aF"/><use transform="matrix(0.04320987654320988,0,0,0.04320987654320988,53.45061728395062,0)" xlink:href="#ad"/></g><g id="B"><use transform="matrix(0.04320987654320988,0,0,0.04320987654320988,0,0)" xlink:href="#aB"/><use transform="matrix(0.04320987654320988,0,0,0.04320987654320988,9.074074074074074,0)" xlink:href="#aw"/><use transform="matrix(0.04320987654320988,0,0,0.04320987654320988,17.71604938271605,0)" xlink:href="#ad"/><use transform="matrix(0.04320987654320988,0,0,0.04320987654320988,26.35802469135803,0)" xlink:href="#au"/><use transform="matrix(0.04320987654320988,0,0,0.04320987654320988,30.67901234567901,0)" xlink:href="#as"/><use transform="matrix(0.04320987654320988,0,0,0.04320987654320988,40.01234567901235,0)" xlink:href="#ag"/><use transform="matrix(0.04320987654320988,0,0,0.04320987654320988,43.42592592592593,0)" xlink:href="#aF"/><use transform="matrix(0.04320987654320988,0,0,0.04320987654320988,56.345679012345684,0)" xlink:href="#ad"/><use transform="matrix(0.04320987654320988,0,0,0.04320987654320988,64.98765432098766,0)" xlink:href="#aC"/><use transform="matrix(0.04320987654320988,0,0,0.04320987654320988,74.45061728395062,0)" xlink:href="#ae"/><use transform="matrix(0.04320987654320988,0,0,0.04320987654320988,79.5925925925926,0)" xlink:href="#am"/><use transform="matrix(0.04320987654320988,0,0,0.04320987654320988,88.23456790123457,0)" xlink:href="#aF"/><use transform="matrix(0.04320987654320988,0,0,0.04320987654320988,101.15432098765433,0)" xlink:href="#ac"/><use transform="matrix(0.04320987654320988,0,0,0.04320987654320988,111.5246913580247,0)" xlink:href="#ak"/><use transform="matrix(0.04320987654320988,0,0,0.04320987654320988,120.16666666666669,0)" xlink:href="#aJ"/><use transform="matrix(0.04320987654320988,0,0,0.04320987654320988,128.80864197530866,0)" xlink:href="#ah"/><use transform="matrix(0.04320987654320988,0,0,0.04320987654320988,132.22222222222223,0)" xlink:href="#ag"/><use transform="matrix(0.04320987654320988,0,0,0.04320987654320988,135.6358024691358,0)" xlink:href="#aj"/><use transform="matrix(0.04320987654320988,0,0,0.04320987654320988,143.41358024691357,0)" xlink:href="#aK"/><use transform="matrix(0.04320987654320988,0,0,0.04320987654320988,152.05555555555554,0)" xlink:href="#ad"/><use transform="matrix(0.04320987654320988,0,0,0.04320987654320988,160.69753086419752,0)" xlink:href="#ap"/></g><path fill="#666" d="M27 0v-27h64v-190l-56 39v-29l58-41h29v221h61V0H27" id="aO"/><path fill="#666" d="M33 0v-38h34V0H33" id="aP"/><path fill="#666" d="M80-196l47-18 7 23-49 13 32 44-20 13-27-46-27 45-21-12 33-44-49-13 8-23 47 19-2-53h23" id="aQ"/><g id="C"><use transform="matrix(0.04320987654320988,0,0,0.04320987654320988,0,0)" xlink:href="#aO"/><use transform="matrix(0.04320987654320988,0,0,0.04320987654320988,8.641975308641976,0)" xlink:href="#aP"/><use transform="matrix(0.04320987654320988,0,0,0.04320987654320988,12.962962962962964,0)" xlink:href="#aP"/><use transform="matrix(0.04320987654320988,0,0,0.04320987654320988,17.283950617283953,0)" xlink:href="#aQ"/></g><use transform="matrix(0.04320987654320988,0,0,0.04320987654320988,0,0)" xlink:href="#aO" id="D"/><path fill="#666" d="M15-91v-56l181-69v40L49-119l147 57v40" id="aR"/><path fill="#666" d="M25-224v-37h50v37H25zM25 0v-190h50V0H25" id="aS"/><path fill="#666" d="M135-194c87-1 58 113 63 194h-50c-7-57 23-157-34-157-59 0-34 97-39 157H25l-1-190h47c2 12-1 28 3 38 12-26 28-41 61-42" id="aT"/><path fill="#666" d="M115-3C79 11 28 4 28-45v-112H4v-33h27l15-45h31v45h36v33H77v99c-1 23 16 31 38 25v30" id="aU"/><path fill="#666" d="M185-48c-13 30-37 53-82 52C43 2 14-33 14-96s30-98 90-98c62 0 83 45 84 108H66c0 31 8 55 39 56 18 0 30-7 34-22zm-45-69c5-46-57-63-70-21-2 6-4 13-4 21h74" id="aV"/><path fill="#666" d="M135-150c-39-12-60 13-60 57V0H25l-1-190h47c2 13-1 29 3 40 6-28 27-53 61-41v41" id="aW"/><path fill="#666" d="M121-226c-27-7-43 5-38 36h38v33H83V0H34v-157H6v-33h28c-9-59 32-81 87-68v32" id="aX"/><path fill="#666" d="M133-34C117-15 103 5 69 4 32 3 11-16 11-54c-1-60 55-63 116-61 1-26-3-47-28-47-18 1-26 9-28 27l-52-2c7-38 36-58 82-57s74 22 75 68l1 82c-1 14 12 18 25 15v27c-30 8-71 5-69-32zm-48 3c29 0 43-24 42-57-32 0-66-3-65 30 0 17 8 27 23 27" id="aY"/><path fill="#666" d="M190-63c-7 42-38 67-86 67-59 0-84-38-90-98-12-110 154-137 174-36l-49 2c-2-19-15-32-35-32-30 0-35 28-38 64-6 74 65 87 74 30" id="aZ"/><path fill="#666" d="M15-22v-40l146-57-146-57v-40l181 69v56" id="ba"/><g id="E"><use transform="matrix(0.05,0,0,0.05,0,0)" xlink:href="#aR"/><use transform="matrix(0.05,0,0,0.05,10.5,0)" xlink:href="#aR"/><use transform="matrix(0.05,0,0,0.05,21,0)" xlink:href="#aS"/><use transform="matrix(0.05,0,0,0.05,26,0)" xlink:href="#aT"/><use transform="matrix(0.05,0,0,0.05,36.95,0)" xlink:href="#aU"/><use transform="matrix(0.05,0,0,0.05,42.900000000000006,0)" xlink:href="#aV"/><use transform="matrix(0.05,0,0,0.05,52.900000000000006,0)" xlink:href="#aW"/><use transform="matrix(0.05,0,0,0.05,59.900000000000006,0)" xlink:href="#aX"/><use transform="matrix(0.05,0,0,0.05,65.85000000000001,0)" xlink:href="#aY"/><use transform="matrix(0.05,0,0,0.05,75.85000000000001,0)" xlink:href="#aZ"/><use transform="matrix(0.05,0,0,0.05,85.85000000000001,0)" xlink:href="#aV"/><use transform="matrix(0.05,0,0,0.05,95.85000000000001,0)" xlink:href="#ba"/><use transform="matrix(0.05,0,0,0.05,106.35000000000001,0)" xlink:href="#ba"/></g><path fill="#666" d="M24 0v-248h52V0H24" id="bb"/><path fill="#666" d="M24-248c120-7 223 5 221 122C244-46 201 0 124 0H24v-248zM76-40c74 7 117-18 117-86 0-67-45-88-117-82v168" id="bc"/><path fill="#666" d="M128 0H69L1-190h53L99-40l48-150h52" id="bd"/><path fill="#666" d="M240-174c0 40-23 61-54 70L253 0h-59l-57-94H76V0H24v-248c93 4 217-23 216 74zM76-134c48-2 112 12 112-38 0-48-66-32-112-35v73" id="be"/><path fill="#666" d="M135-194c53 0 70 44 70 98 0 56-19 98-73 100-31 1-45-17-59-34 3 33 2 69 2 105H25l-1-265h48c2 10 0 23 3 31 11-24 29-35 60-35zM114-30c33 0 39-31 40-66 0-38-9-64-40-64-56 0-55 130 0 130" id="bf"/><path fill="#666" d="M110-194c64 0 96 36 96 99 0 64-35 99-97 99-61 0-95-36-95-99 0-62 34-99 96-99zm-1 164c35 0 45-28 45-65 0-40-10-65-43-65-34 0-45 26-45 65 0 36 10 65 43 65" id="bg"/><path fill="#666" d="M137-138c1-29-70-34-71-4 15 46 118 7 119 86 1 83-164 76-172 9l43-7c4 19 20 25 44 25 33 8 57-30 24-41C81-84 22-81 20-136c-2-80 154-74 161-7" id="bh"/><path fill="#666" d="M123 10C108 53 80 86 19 72V37c35 8 53-11 59-39L3-190h52l48 148c12-52 28-100 44-148h51" id="bi"/><g id="F"><use transform="matrix(0.05,0,0,0.05,0,0)" xlink:href="#bb"/><use transform="matrix(0.05,0,0,0.05,5,0)" xlink:href="#bc"/><use transform="matrix(0.05,0,0,0.05,17.950000000000003,0)" xlink:href="#aV"/><use transform="matrix(0.05,0,0,0.05,27.950000000000003,0)" xlink:href="#bd"/><use transform="matrix(0.05,0,0,0.05,37.95,0)" xlink:href="#be"/><use transform="matrix(0.05,0,0,0.05,50.900000000000006,0)" xlink:href="#aV"/><use transform="matrix(0.05,0,0,0.05,60.900000000000006,0)" xlink:href="#bf"/><use transform="matrix(0.05,0,0,0.05,71.85000000000001,0)" xlink:href="#bg"/><use transform="matrix(0.05,0,0,0.05,82.80000000000001,0)" xlink:href="#bh"/><use transform="matrix(0.05,0,0,0.05,92.80000000000001,0)" xlink:href="#aS"/><use transform="matrix(0.05,0,0,0.05,97.80000000000001,0)" xlink:href="#aU"/><use transform="matrix(0.05,0,0,0.05,103.75,0)" xlink:href="#bg"/><use transform="matrix(0.05,0,0,0.05,114.7,0)" xlink:href="#aW"/><use transform="matrix(0.05,0,0,0.05,121.7,0)" xlink:href="#bi"/></g><path fill="#666" d="M118-107v75H92v-75H18v-26h74v-75h26v75h74v26h-74" id="bj"/><path fill="#666" d="M143 4C61 4 22-44 18-125c-5-107 100-154 193-111 17 8 29 25 37 43l-32 9c-13-25-37-40-76-40-61 0-88 39-88 99 0 61 29 100 91 101 35 0 62-11 79-27v-45h-74v-28h105v86C228-13 192 4 143 4" id="bk"/><path fill="#666" d="M100-194c63 0 86 42 84 106H49c0 40 14 67 53 68 26 1 43-12 49-29l28 8c-11 28-37 45-77 45C44 4 14-33 15-96c1-61 26-98 85-98zm52 81c6-60-76-77-97-28-3 7-6 17-6 28h103" id="bl"/><path fill="#666" d="M59-47c-2 24 18 29 38 22v24C64 9 27 4 27-40v-127H5v-23h24l9-43h21v43h35v23H59v120" id="bm"/><path fill="#666" d="M205 0l-28-72H64L36 0H1l101-248h38L239 0h-34zm-38-99l-47-123c-12 45-31 82-46 123h93" id="bn"/><path fill="#666" d="M24 0v-261h32V0H24" id="bo"/><path fill="#666" d="M33-154v-36h34v36H33zM33 0v-36h34V0H33" id="bp"/><g id="G"><use transform="matrix(0.04284979423868313,0,0,0.04284979423868313,0,0)" xlink:href="#bj"/><use transform="matrix(0.04284979423868313,0,0,0.04284979423868313,8.998456790123457,0)" xlink:href="#bk"/><use transform="matrix(0.04284979423868313,0,0,0.04284979423868313,20.996399176954732,0)" xlink:href="#bl"/><use transform="matrix(0.04284979423868313,0,0,0.04284979423868313,29.56635802469136,0)" xlink:href="#bm"/><use transform="matrix(0.04284979423868313,0,0,0.04284979423868313,33.851337448559676,0)" xlink:href="#bn"/><use transform="matrix(0.04284979423868313,0,0,0.04284979423868313,44.135288065843625,0)" xlink:href="#bo"/><use transform="matrix(0.04284979423868313,0,0,0.04284979423868313,47.520421810699595,0)" xlink:href="#bo"/><use transform="matrix(0.04284979423868313,0,0,0.04284979423868313,50.90555555555556,0)" xlink:href="#bp"/></g><path fill="#666" d="M30-248c118-7 216 8 213 122C240-48 200 0 122 0H30v-248zM63-27c89 8 146-16 146-99s-60-101-146-95v194" id="bq"/><path fill="#666" d="M108 0H70L1-190h34L89-25l56-165h34" id="br"/><path fill="#666" d="M240 0l2-218c-23 76-54 145-80 218h-23L58-218 59 0H30v-248h44l77 211c21-75 51-140 76-211h43V0h-30" id="bs"/><path fill="#666" d="M100-194c62-1 85 37 85 99 1 63-27 99-86 99S16-35 15-95c0-66 28-99 85-99zM99-20c44 1 53-31 53-75 0-43-8-75-51-75s-53 32-53 75 10 74 51 75" id="bt"/><path fill="#666" d="M85-194c31 0 48 13 60 33l-1-100h32l1 261h-30c-2-10 0-23-3-31C134-8 116 4 85 4 32 4 16-35 15-94c0-66 23-100 70-100zm9 24c-40 0-46 34-46 75 0 40 6 74 45 74 42 0 51-32 51-76 0-42-9-74-50-73" id="bu"/><g id="H"><use transform="matrix(0.04284979423868313,0,0,0.04284979423868313,0,0)" xlink:href="#bq"/><use transform="matrix(0.04284979423868313,0,0,0.04284979423868313,11.09809670781893,0)" xlink:href="#bl"/><use transform="matrix(0.04284979423868313,0,0,0.04284979423868313,19.668055555555558,0)" xlink:href="#br"/><use transform="matrix(0.04284979423868313,0,0,0.04284979423868313,27.381018518518523,0)" xlink:href="#bs"/><use transform="matrix(0.04284979423868313,0,0,0.04284979423868313,40.193106995884776,0)" xlink:href="#bt"/><use transform="matrix(0.04284979423868313,0,0,0.04284979423868313,48.763065843621405,0)" xlink:href="#bu"/><use transform="matrix(0.04284979423868313,0,0,0.04284979423868313,57.333024691358034,0)" xlink:href="#bl"/><use transform="matrix(0.04284979423868313,0,0,0.04284979423868313,65.90298353909466,0)" xlink:href="#bo"/></g><path fill="#666" d="M160-131c35 5 61 23 61 61C221 17 115-2 30 0v-248c76 3 177-17 177 60 0 33-19 50-47 57zm-97-11c50-1 110 9 110-42 0-47-63-36-110-37v79zm0 115c55-2 124 14 124-45 0-56-70-42-124-44v89" id="bv"/><path fill="#666" d="M179-190L93 31C79 59 56 82 12 73V49c39 6 53-20 64-50L1-190h34L92-34l54-156h33" id="bw"/><path fill="#666" d="M33 0v-248h34V0H33" id="bx"/><g id="I"><use transform="matrix(0.04284979423868313,0,0,0.04284979423868313,0,0)" xlink:href="#bj"/><use transform="matrix(0.04284979423868313,0,0,0.04284979423868313,8.998456790123457,0)" xlink:href="#bk"/><use transform="matrix(0.04284979423868313,0,0,0.04284979423868313,20.996399176954732,0)" xlink:href="#bl"/><use transform="matrix(0.04284979423868313,0,0,0.04284979423868313,29.56635802469136,0)" xlink:href="#bm"/><use transform="matrix(0.04284979423868313,0,0,0.04284979423868313,33.851337448559676,0)" xlink:href="#bv"/><use transform="matrix(0.04284979423868313,0,0,0.04284979423868313,44.135288065843625,0)" xlink:href="#bw"/><use transform="matrix(0.04284979423868313,0,0,0.04284979423868313,51.84825102880659,0)" xlink:href="#bx"/><use transform="matrix(0.04284979423868313,0,0,0.04284979423868313,56.1332304526749,0)" xlink:href="#bu"/><use transform="matrix(0.04284979423868313,0,0,0.04284979423868313,64.70318930041152,0)" xlink:href="#bp"/></g><path fill="#666" d="M24-231v-30h32v30H24zM24 0v-190h32V0H24" id="by"/><path fill="#666" d="M117-194c89-4 53 116 60 194h-32v-121c0-31-8-49-39-48C34-167 62-67 57 0H25l-1-190h30c1 10-1 24 2 32 11-22 29-35 61-36" id="bz"/><g id="J"><use transform="matrix(0.04284979423868313,0,0,0.04284979423868313,0,0)" xlink:href="#by"/><use transform="matrix(0.04284979423868313,0,0,0.04284979423868313,3.3851337448559673,0)" xlink:href="#bz"/><use transform="matrix(0.04284979423868313,0,0,0.04284979423868313,11.955092592592594,0)" xlink:href="#bm"/></g><path fill="#666" d="M212-179c-10-28-35-45-73-45-59 0-87 40-87 99 0 60 29 101 89 101 43 0 62-24 78-52l27 14C228-24 195 4 139 4 59 4 22-46 18-125c-6-104 99-153 187-111 19 9 31 26 39 46" id="bA"/><path fill="#666" d="M114-163C36-179 61-72 57 0H25l-1-190h30c1 12-1 29 2 39 6-27 23-49 58-41v29" id="bB"/><path fill="#666" d="M141-36C126-15 110 5 73 4 37 3 15-17 15-53c-1-64 63-63 125-63 3-35-9-54-41-54-24 1-41 7-42 31l-33-3c5-37 33-52 76-52 45 0 72 20 72 64v82c-1 20 7 32 28 27v20c-31 9-61-2-59-35zM48-53c0 20 12 33 32 33 41-3 63-29 60-74-43 2-92-5-92 41" id="bC"/><g id="K"><use transform="matrix(0.04284979423868313,0,0,0.04284979423868313,0,0)" xlink:href="#bj"/><use transform="matrix(0.04284979423868313,0,0,0.04284979423868313,8.998456790123457,0)" xlink:href="#bA"/><use transform="matrix(0.04284979423868313,0,0,0.04284979423868313,20.096553497942388,0)" xlink:href="#bB"/><use transform="matrix(0.04284979423868313,0,0,0.04284979423868313,25.19567901234568,0)" xlink:href="#bl"/><use transform="matrix(0.04284979423868313,0,0,0.04284979423868313,33.76563786008231,0)" xlink:href="#bC"/><use transform="matrix(0.04284979423868313,0,0,0.04284979423868313,42.33559670781894,0)" xlink:href="#bm"/><use transform="matrix(0.04284979423868313,0,0,0.04284979423868313,46.62057613168725,0)" xlink:href="#bl"/><use transform="matrix(0.04284979423868313,0,0,0.04284979423868313,55.19053497942389,0)" xlink:href="#bp"/></g><path fill="#666" d="M30 0v-248h187v28H63v79h144v27H63v87h162V0H30" id="bD"/><g id="L"><use transform="matrix(0.04284979423868313,0,0,0.04284979423868313,0,0)" xlink:href="#bj"/><use transform="matrix(0.04284979423868313,0,0,0.04284979423868313,8.998456790123457,0)" xlink:href="#bD"/><use transform="matrix(0.04284979423868313,0,0,0.04284979423868313,19.28240740740741,0)" xlink:href="#bu"/><use transform="matrix(0.04284979423868313,0,0,0.04284979423868313,27.852366255144037,0)" xlink:href="#by"/><use transform="matrix(0.04284979423868313,0,0,0.04284979423868313,31.237499999999997,0)" xlink:href="#bm"/><use transform="matrix(0.04284979423868313,0,0,0.04284979423868313,35.52247942386831,0)" xlink:href="#bp"/></g><path fill="#666" d="M87 75C49 33 22-17 22-94c0-76 28-126 65-167h31c-38 41-64 92-64 168S80 34 118 75H87" id="bE"/><g id="M"><use transform="matrix(0.04284979423868313,0,0,0.04284979423868313,0,0)" xlink:href="#bj"/><use transform="matrix(0.04284979423868313,0,0,0.04284979423868313,8.998456790123457,0)" xlink:href="#bq"/><use transform="matrix(0.04284979423868313,0,0,0.04284979423868313,20.096553497942388,0)" xlink:href="#bl"/><use transform="matrix(0.04284979423868313,0,0,0.04284979423868313,28.666512345679017,0)" xlink:href="#bo"/><use transform="matrix(0.04284979423868313,0,0,0.04284979423868313,32.05164609053499,0)" xlink:href="#bl"/><use transform="matrix(0.04284979423868313,0,0,0.04284979423868313,40.62160493827162,0)" xlink:href="#bm"/><use transform="matrix(0.04284979423868313,0,0,0.04284979423868313,44.90658436213993,0)" xlink:href="#bl"/><use transform="matrix(0.04284979423868313,0,0,0.04284979423868313,53.47654320987656,0)" xlink:href="#bE"/><use transform="matrix(0.04284979423868313,0,0,0.04284979423868313,58.57566872427985,0)" xlink:href="#by"/><use transform="matrix(0.04284979423868313,0,0,0.04284979423868313,61.96080246913582,0)" xlink:href="#bz"/><use transform="matrix(0.04284979423868313,0,0,0.04284979423868313,70.53076131687244,0)" xlink:href="#bm"/></g><path fill="#666" d="M33-261c38 41 65 92 65 168S71 34 33 75H2C39 34 66-17 66-93S39-220 2-261h31" id="bF"/><g id="N"><use transform="matrix(0.04284979423868313,0,0,0.04284979423868313,0,0)" xlink:href="#by"/><use transform="matrix(0.04284979423868313,0,0,0.04284979423868313,3.3851337448559673,0)" xlink:href="#bu"/><use transform="matrix(0.04284979423868313,0,0,0.04284979423868313,11.955092592592594,0)" xlink:href="#bF"/><use transform="matrix(0.04284979423868313,0,0,0.04284979423868313,17.054218106995886,0)" xlink:href="#bp"/></g><path fill="#666" d="M68-36c1 33-1 63-14 82H32c9-13 17-26 17-46H33v-36h35zM33-154v-36h35v36H33" id="bG"/><g id="O"><use transform="matrix(0.04284979423868313,0,0,0.04284979423868313,0,0)" xlink:href="#br"/><use transform="matrix(0.04284979423868313,0,0,0.04284979423868313,7.712962962962964,0)" xlink:href="#bt"/><use transform="matrix(0.04284979423868313,0,0,0.04284979423868313,16.28292181069959,0)" xlink:href="#by"/><use transform="matrix(0.04284979423868313,0,0,0.04284979423868313,19.668055555555558,0)" xlink:href="#bu"/><use transform="matrix(0.04284979423868313,0,0,0.04284979423868313,28.238014403292183,0)" xlink:href="#bG"/></g><path fill="#666" d="M125-24c46 0 70-25 89-51l25 16C214-24 183 4 123 4 8 4-5-146 60-208c32-50 158-61 191-5 5 7 9 14 11 22l-32 10c-9-28-33-43-69-43-74 0-108 51-108 125 0 46 24 75 72 75" id="bH"/><g id="P"><use transform="matrix(0.04320987654320988,0,0,0.04320987654320988,0,0)" xlink:href="#bH"/><use transform="matrix(0.04320987654320988,0,0,0.04320987654320988,11.19135802469136,0)" xlink:href="#am"/><use transform="matrix(0.04320987654320988,0,0,0.04320987654320988,19.833333333333336,0)" xlink:href="#aF"/><use transform="matrix(0.04320987654320988,0,0,0.04320987654320988,32.75308641975309,0)" xlink:href="#at"/><use transform="matrix(0.04320987654320988,0,0,0.04320987654320988,41.39506172839506,0)" xlink:href="#aE"/><use transform="matrix(0.04320987654320988,0,0,0.04320987654320988,50.037037037037045,0)" xlink:href="#av"/><use transform="matrix(0.04320987654320988,0,0,0.04320987654320988,58.679012345679006,0)" xlink:href="#aA"/><use transform="matrix(0.04320987654320988,0,0,0.04320987654320988,66.45679012345678,0)" xlink:href="#az"/><use transform="matrix(0.04320987654320988,0,0,0.04320987654320988,76.82716049382715,0)" xlink:href="#av"/><use transform="matrix(0.04320987654320988,0,0,0.04320987654320988,85.46913580246913,0)" xlink:href="#au"/><use transform="matrix(0.04320987654320988,0,0,0.04320987654320988,89.79012345679011,0)" xlink:href="#ag"/><use transform="matrix(0.04320987654320988,0,0,0.04320987654320988,93.2037037037037,0)" xlink:href="#au"/><use transform="matrix(0.04320987654320988,0,0,0.04320987654320988,97.52469135802468,0)" xlink:href="#aA"/></g><g id="Q"><use transform="matrix(0.04320987654320988,0,0,0.04320987654320988,0,0)" xlink:href="#aB"/><use transform="matrix(0.04320987654320988,0,0,0.04320987654320988,9.074074074074074,0)" xlink:href="#aD"/><use transform="matrix(0.04320987654320988,0,0,0.04320987654320988,20.265432098765434,0)" xlink:href="#aE"/><use transform="matrix(0.04320987654320988,0,0,0.04320987654320988,28.907407407407412,0)" xlink:href="#aF"/><use transform="matrix(0.04320987654320988,0,0,0.04320987654320988,41.827160493827165,0)" xlink:href="#ad"/><use transform="matrix(0.04320987654320988,0,0,0.04320987654320988,50.46913580246914,0)" xlink:href="#aq"/></g><g id="R"><use transform="matrix(0.04320987654320988,0,0,0.04320987654320988,0,0)" xlink:href="#aB"/><use transform="matrix(0.04320987654320988,0,0,0.04320987654320988,9.074074074074074,0)" xlink:href="#aG"/><use transform="matrix(0.04320987654320988,0,0,0.04320987654320988,17.71604938271605,0)" xlink:href="#am"/><use transform="matrix(0.04320987654320988,0,0,0.04320987654320988,26.35802469135803,0)" xlink:href="#aN"/><use transform="matrix(0.04320987654320988,0,0,0.04320987654320988,34.135802469135804,0)" xlink:href="#aE"/><use transform="matrix(0.04320987654320988,0,0,0.04320987654320988,42.77777777777778,0)" xlink:href="#au"/><use transform="matrix(0.04320987654320988,0,0,0.04320987654320988,47.09876543209877,0)" xlink:href="#ag"/><use transform="matrix(0.04320987654320988,0,0,0.04320987654320988,50.51234567901235,0)" xlink:href="#am"/><use transform="matrix(0.04320987654320988,0,0,0.04320987654320988,59.15432098765433,0)" xlink:href="#av"/><use transform="matrix(0.04320987654320988,0,0,0.04320987654320988,67.7962962962963,0)" xlink:href="#aq"/></g><g id="S"><use transform="matrix(0.04320987654320988,0,0,0.04320987654320988,0,0)" xlink:href="#aB"/><use transform="matrix(0.04320987654320988,0,0,0.04320987654320988,9.074074074074074,0)" xlink:href="#ag"/><use transform="matrix(0.04320987654320988,0,0,0.04320987654320988,12.487654320987655,0)" xlink:href="#aj"/><use transform="matrix(0.04320987654320988,0,0,0.04320987654320988,20.265432098765434,0)" xlink:href="#aH"/><use transform="matrix(0.04320987654320988,0,0,0.04320987654320988,30.635802469135804,0)" xlink:href="#au"/><use transform="matrix(0.04320987654320988,0,0,0.04320987654320988,34.95679012345679,0)" xlink:href="#aE"/><use transform="matrix(0.04320987654320988,0,0,0.04320987654320988,43.598765432098766,0)" xlink:href="#ae"/><use transform="matrix(0.04320987654320988,0,0,0.04320987654320988,48.74074074074073,0)" xlink:href="#au"/><use transform="matrix(0.04320987654320988,0,0,0.04320987654320988,53.06172839506172,0)" xlink:href="#ai"/><use transform="matrix(0.04320987654320988,0,0,0.04320987654320988,64.25308641975309,0)" xlink:href="#at"/><use transform="matrix(0.04320987654320988,0,0,0.04320987654320988,72.89506172839506,0)" xlink:href="#aq"/></g><g id="T"><use transform="matrix(0.04320987654320988,0,0,0.04320987654320988,0,0)" xlink:href="#aI"/><use transform="matrix(0.04320987654320988,0,0,0.04320987654320988,10.370370370370372,0)" xlink:href="#am"/><use transform="matrix(0.04320987654320988,0,0,0.04320987654320988,19.01234567901235,0)" xlink:href="#am"/><use transform="matrix(0.04320987654320988,0,0,0.04320987654320988,27.654320987654323,0)" xlink:href="#ah"/></g><path fill="#666" d="M20-101c0-91 52-143 145-150 126-9 127 168 53 223-23 17-55 32-93 32C57 4 20-33 20-101zm216-33c5-57-18-91-73-90-77 1-110 51-110 125 0 49 23 75 73 75 72-1 104-45 110-110" id="bI"/><g id="U"><use transform="matrix(0.04320987654320988,0,0,0.04320987654320988,0,0)" xlink:href="#bI"/><use transform="matrix(0.04320987654320988,0,0,0.04320987654320988,12.098765432098766,0)" xlink:href="#at"/><use transform="matrix(0.04320987654320988,0,0,0.04320987654320988,20.74074074074074,0)" xlink:href="#at"/><use transform="matrix(0.04320987654320988,0,0,0.04320987654320988,29.382716049382715,0)" xlink:href="#am"/><use transform="matrix(0.04320987654320988,0,0,0.04320987654320988,38.02469135802469,0)" xlink:href="#ae"/><use transform="matrix(0.04320987654320988,0,0,0.04320987654320988,43.166666666666664,0)" xlink:href="#au"/><use transform="matrix(0.04320987654320988,0,0,0.04320987654320988,47.48765432098765,0)" xlink:href="#ak"/><use transform="matrix(0.04320987654320988,0,0,0.04320987654320988,56.129629629629626,0)" xlink:href="#av"/><use transform="matrix(0.04320987654320988,0,0,0.04320987654320988,64.77160493827161,0)" xlink:href="#ag"/><use transform="matrix(0.04320987654320988,0,0,0.04320987654320988,68.18518518518519,0)" xlink:href="#au"/><use transform="matrix(0.04320987654320988,0,0,0.04320987654320988,72.50617283950618,0)" xlink:href="#aA"/></g><g id="V"><use transform="matrix(0.04320987654320988,0,0,0.04320987654320988,0,0)" xlink:href="#aB"/><use transform="matrix(0.04320987654320988,0,0,0.04320987654320988,9.074074074074074,0)" xlink:href="#ap"/><use transform="matrix(0.04320987654320988,0,0,0.04320987654320988,17.71604938271605,0)" xlink:href="#aq"/></g><g id="W"><use transform="matrix(0.04320987654320988,0,0,0.04320987654320988,0,0)" xlink:href="#aB"/><use transform="matrix(0.04320987654320988,0,0,0.04320987654320988,9.074074074074074,0)" xlink:href="#at"/><use transform="matrix(0.04320987654320988,0,0,0.04320987654320988,17.71604938271605,0)" xlink:href="#ad"/><use transform="matrix(0.04320987654320988,0,0,0.04320987654320988,26.35802469135803,0)" xlink:href="#ae"/><use transform="matrix(0.04320987654320988,0,0,0.04320987654320988,31.5,0)" xlink:href="#ag"/><use transform="matrix(0.04320987654320988,0,0,0.04320987654320988,34.91358024691358,0)" xlink:href="#am"/><use transform="matrix(0.04320987654320988,0,0,0.04320987654320988,43.55555555555556,0)" xlink:href="#ap"/><use transform="matrix(0.04320987654320988,0,0,0.04320987654320988,52.19753086419754,0)" xlink:href="#aq"/></g><g id="X"><use transform="matrix(0.04320987654320988,0,0,0.04320987654320988,0,0)" xlink:href="#aj"/><use transform="matrix(0.04320987654320988,0,0,0.04320987654320988,7.777777777777779,0)" xlink:href="#au"/><use transform="matrix(0.04320987654320988,0,0,0.04320987654320988,12.098765432098766,0)" xlink:href="#ae"/><use transform="matrix(0.04320987654320988,0,0,0.04320987654320988,17.24074074074074,0)" xlink:href="#ag"/><use transform="matrix(0.04320987654320988,0,0,0.04320987654320988,20.654320987654323,0)" xlink:href="#av"/><use transform="matrix(0.04320987654320988,0,0,0.04320987654320988,29.296296296296298,0)" xlink:href="#aw"/></g><g id="Y"><use transform="matrix(0.04320987654320988,0,0,0.04320987654320988,0,0)" xlink:href="#aB"/><use transform="matrix(0.04320987654320988,0,0,0.04320987654320988,9.074074074074074,0)" xlink:href="#au"/><use transform="matrix(0.04320987654320988,0,0,0.04320987654320988,13.395061728395063,0)" xlink:href="#ad"/><use transform="matrix(0.04320987654320988,0,0,0.04320987654320988,22.037037037037038,0)" xlink:href="#aN"/><use transform="matrix(0.04320987654320988,0,0,0.04320987654320988,29.814814814814817,0)" xlink:href="#av"/><use transform="matrix(0.04320987654320988,0,0,0.04320987654320988,38.45679012345679,0)" xlink:href="#am"/><use transform="matrix(0.04320987654320988,0,0,0.04320987654320988,47.09876543209877,0)" xlink:href="#ah"/><use transform="matrix(0.04320987654320988,0,0,0.04320987654320988,50.51234567901235,0)" xlink:href="#am"/><use transform="matrix(0.04320987654320988,0,0,0.04320987654320988,59.15432098765433,0)" xlink:href="#aw"/><use transform="matrix(0.04320987654320988,0,0,0.04320987654320988,67.7962962962963,0)" xlink:href="#aA"/><use transform="matrix(0.04320987654320988,0,0,0.04320987654320988,75.57407407407408,0)" xlink:href="#aq"/></g><path fill="#666" d="M249-183c0 48-29 72-75 77L221 0h-36l-43-103H65L45 0H11l48-248c83 2 190-17 190 65zm-34 3c0-55-74-39-127-41l-18 92c63-1 145 13 145-51" id="bJ"/><g id="Z"><use transform="matrix(0.04320987654320988,0,0,0.04320987654320988,0,0)" xlink:href="#aB"/><use transform="matrix(0.04320987654320988,0,0,0.04320987654320988,9.074074074074074,0)" xlink:href="#ag"/><use transform="matrix(0.04320987654320988,0,0,0.04320987654320988,12.487654320987655,0)" xlink:href="#aj"/><use transform="matrix(0.04320987654320988,0,0,0.04320987654320988,20.265432098765434,0)" xlink:href="#bJ"/><use transform="matrix(0.04320987654320988,0,0,0.04320987654320988,31.456790123456795,0)" xlink:href="#ad"/><use transform="matrix(0.04320987654320988,0,0,0.04320987654320988,40.098765432098766,0)" xlink:href="#aF"/><use transform="matrix(0.04320987654320988,0,0,0.04320987654320988,53.01851851851851,0)" xlink:href="#am"/><use transform="matrix(0.04320987654320988,0,0,0.04320987654320988,61.660493827160494,0)" xlink:href="#au"/><use transform="matrix(0.04320987654320988,0,0,0.04320987654320988,65.98148148148148,0)" xlink:href="#ad"/><use transform="matrix(0.04320987654320988,0,0,0.04320987654320988,74.62345679012346,0)" xlink:href="#aq"/></g><g id="aa"><use transform="matrix(0.04320987654320988,0,0,0.04320987654320988,0,0)" xlink:href="#an"/><use transform="matrix(0.04320987654320988,0,0,0.04320987654320988,5.1419753086419755,0)" xlink:href="#au"/><use transform="matrix(0.04320987654320988,0,0,0.04320987654320988,9.462962962962964,0)" xlink:href="#ae"/><use transform="matrix(0.04320987654320988,0,0,0.04320987654320988,14.60493827160494,0)" xlink:href="#ag"/><use transform="matrix(0.04320987654320988,0,0,0.04320987654320988,18.01851851851852,0)" xlink:href="#ad"/><use transform="matrix(0.04320987654320988,0,0,0.04320987654320988,26.66049382716049,0)" xlink:href="#aj"/><use transform="matrix(0.04320987654320988,0,0,0.04320987654320988,34.43827160493827,0)" xlink:href="#ac"/><use transform="matrix(0.04320987654320988,0,0,0.04320987654320988,44.808641975308646,0)" xlink:href="#ad"/><use transform="matrix(0.04320987654320988,0,0,0.04320987654320988,53.45061728395062,0)" xlink:href="#ae"/><use transform="matrix(0.04320987654320988,0,0,0.04320987654320988,58.592592592592595,0)" xlink:href="#ax"/><use transform="matrix(0.04320987654320988,0,0,0.04320987654320988,69.78395061728395,0)" xlink:href="#ad"/><use transform="matrix(0.04320987654320988,0,0,0.04320987654320988,78.42592592592592,0)" xlink:href="#ay"/><use transform="matrix(0.04320987654320988,0,0,0.04320987654320988,86.2037037037037,0)" xlink:href="#az"/><use transform="matrix(0.04320987654320988,0,0,0.04320987654320988,96.57407407407406,0)" xlink:href="#av"/><use transform="matrix(0.04320987654320988,0,0,0.04320987654320988,105.21604938271604,0)" xlink:href="#au"/><use transform="matrix(0.04320987654320988,0,0,0.04320987654320988,109.53703703703702,0)" xlink:href="#ag"/><use transform="matrix(0.04320987654320988,0,0,0.04320987654320988,112.9506172839506,0)" xlink:href="#au"/><use transform="matrix(0.04320987654320988,0,0,0.04320987654320988,117.2716049382716,0)" xlink:href="#aA"/></g><path fill="#666" d="M101-251c68 0 85 55 85 127S166 4 100 4C33 4 14-52 14-124c0-73 17-127 87-127zm-1 229c47 0 54-49 54-102s-4-102-53-102c-51 0-55 48-55 102 0 53 5 102 54 102" id="bK"/><g id="ab"><use transform="matrix(0.04320987654320988,0,0,0.04320987654320988,0,0)" xlink:href="#bK"/><use transform="matrix(0.04320987654320988,0,0,0.04320987654320988,8.641975308641976,0)" xlink:href="#aP"/><use transform="matrix(0.04320987654320988,0,0,0.04320987654320988,12.962962962962964,0)" xlink:href="#aP"/><use transform="matrix(0.04320987654320988,0,0,0.04320987654320988,17.283950617283953,0)" xlink:href="#aQ"/></g></defs></g></svg>